<?xml version="1.0" encoding="UTF-8"?>
<svg id="_Шар_2" data-name="Шар 2" xmlns="http://www.w3.org/2000/svg" xmlns:xlink="http://www.w3.org/1999/xlink" viewBox="0 0 5251.87 6683.35">
  <defs>
    <style>
      .cls-1 {
        fill: url(#_Градієнт_без_назви_5-5);
      }

      .cls-2 {
        fill: url(#_Градієнт_без_назви_15-4);
      }

      .cls-3 {
        fill: url(#_Градієнт_без_назви_5);
      }

      .cls-4 {
        fill: url(#_Градієнт_без_назви_15-5);
      }

      .cls-5 {
        fill: url(#_Градієнт_без_назви_15-8);
      }

      .cls-6 {
        fill: url(#_Градієнт_без_назви_5-2);
      }

      .cls-7 {
        fill: url(#_Градієнт_без_назви_15-6);
      }

      .cls-8 {
        fill: #a45224;
      }

      .cls-9 {
        fill: url(#_Градієнт_без_назви_5-3);
      }

      .cls-10 {
        fill: #bb6827;
      }

      .cls-11 {
        fill: url(#_Градієнт_без_назви_15-10);
      }

      .cls-12 {
        fill: url(#_Градієнт_без_назви_5-4);
      }

      .cls-13 {
        fill: url(#_Градієнт_без_назви_15-9);
      }

      .cls-14 {
        fill: url(#_Градієнт_без_назви_15-2);
      }

      .cls-15 {
        fill: url(#_Градієнт_без_назви_15-3);
      }

      .cls-16 {
        fill: url(#_Градієнт_без_назви_15);
      }

      .cls-17 {
        fill: url(#_Градієнт_без_назви_15-7);
      }
    </style>
    <radialGradient id="_Градієнт_без_назви_5" data-name="Градієнт без назви 5" cx="2673.62" cy="4907.71" fx="2654.98" fy="4173.81" r="5959.86" gradientTransform="translate(697.75 6501.08) scale(.69 -.69)" gradientUnits="userSpaceOnUse">
      <stop offset=".02" stop-color="#f7da92"/>
      <stop offset=".48" stop-color="#f5be67"/>
      <stop offset="1" stop-color="#f39c32"/>
    </radialGradient>
    <radialGradient id="_Градієнт_без_назви_5-2" data-name="Градієнт без назви 5" cx="2677.02" cy="4907.66" fx="2658.38" fy="4173.78" r="5959.59" xlink:href="#_Градієнт_без_назви_5"/>
    <radialGradient id="_Градієнт_без_назви_5-3" data-name="Градієнт без назви 5" cx="2673.27" cy="4911.57" fx="2654.62" fy="4177.4" r="5961.98" xlink:href="#_Градієнт_без_назви_5"/>
    <radialGradient id="_Градієнт_без_назви_5-4" data-name="Градієнт без назви 5" cx="2676.47" cy="4911.57" fx="2657.83" fy="4177.4" r="5961.96" xlink:href="#_Градієнт_без_назви_5"/>
    <radialGradient id="_Градієнт_без_назви_5-5" data-name="Градієнт без назви 5" cx="2674.87" cy="4914.8" fx="2656.22" fy="4180.44" r="5963.56" xlink:href="#_Градієнт_без_назви_5"/>
    <linearGradient id="_Градієнт_без_назви_15" data-name="Градієнт без назви 15" x1="1377.31" y1="85.68" x2="1377.31" y2="2606.19" gradientTransform="translate(697.75 6501.08) scale(.69 -.69)" gradientUnits="userSpaceOnUse">
      <stop offset="0" stop-color="#903d1f"/>
      <stop offset="1" stop-color="#c69671"/>
    </linearGradient>
    <linearGradient id="_Градієнт_без_назви_15-2" data-name="Градієнт без назви 15" x1="4230.69" y1="63.43" x2="4230.69" y2="2575.71" xlink:href="#_Градієнт_без_назви_15"/>
    <linearGradient id="_Градієнт_без_назви_15-3" data-name="Градієнт без назви 15" x1="778.59" y1="2656.62" x2="778.59" y2="6250.02" xlink:href="#_Градієнт_без_назви_15"/>
    <linearGradient id="_Градієнт_без_назви_15-4" data-name="Градієнт без назви 15" x1="4572.81" y1="2656.57" x2="4572.81" y2="6250" xlink:href="#_Градієнт_без_назви_15"/>
    <linearGradient id="_Градієнт_без_назви_15-5" data-name="Градієнт без назви 15" x1="2656.6" y1="6289.92" x2="2656.6" y2="9372.28" xlink:href="#_Градієнт_без_назви_15"/>
    <linearGradient id="_Градієнт_без_назви_15-6" data-name="Градієнт без назви 15" x1="4072.57" y1="2076.15" x2="4072.57" y2="1547.9" xlink:href="#_Градієнт_без_назви_15"/>
    <linearGradient id="_Градієнт_без_назви_15-7" data-name="Градієнт без назви 15" x1="4218.06" y1="1100.66" x2="4218.06" y2="609.74" xlink:href="#_Градієнт_без_назви_15"/>
    <linearGradient id="_Градієнт_без_назви_15-8" data-name="Градієнт без назви 15" x1="4552.94" y1="5124.82" x2="4552.94" y2="3541.14" xlink:href="#_Градієнт_без_назви_15"/>
    <linearGradient id="_Градієнт_без_назви_15-9" data-name="Градієнт без назви 15" x1="758.73" y1="5124.8" x2="758.73" y2="3541.03" xlink:href="#_Градієнт_без_назви_15"/>
    <linearGradient id="_Градієнт_без_назви_15-10" data-name="Градієнт без назви 15" x1="954.65" y1="8190.17" x2="954.65" y2="7236.17" xlink:href="#_Градієнт_без_назви_15"/>
  </defs>
  <g id="Layer_1" data-name="Layer 1">
    <g>
      <g>
        <path class="cls-8" d="M2006.66,317.09c.06,2.16.98,3.41,3.34,3.2-1.24,5.83,3.59,8.68,6.4,12.37,39.04,51.14,72.74,105.63,102.51,162.63,87.5,167.52,133.88,347.3,157.74,533.52,11.31,88.25,17.27,177.02,16.9,266.07-.05,11.74,3.88,13.7,14.58,11.92,28.63-4.75,57.79-6.92,86.05-13.21,15.39-3.43,30.53,3.66,45.21-2.47-3.38-47.18-9.36-94.04-16.62-140.78-25.16-161.99-69.41-318.27-139.08-466.96-61.67-131.62-141.76-250.04-250.82-347.44-6.79-6.06-12.05-15.02-22.68-15.83,1.12-3.42-.26-4.26-3.39-3.3,1.06-5.54-4.53-5.53-7.02-8.09,1.08,3.8,2.25,7.52,6.87,8.36h.01Z"/>
        <path class="cls-8" d="M568.33,2217.17c16.99,32.71,35.92,64.59,67.73,85.92,8.19,8.41,21.02,19.8,38.97,29.02,59.9,30.76,127.14,11.83,176.71-5.52,4.15-1.45,8.09-2.91,12.08-4.37v61.53h932.16v-71.42c1.51,2.1,2.91,4.1,4.18,5.97,73.25-10.65,133.15-16.46,175.04-19.82,39.83-3.19,41.34-4.09,106.16-7.33,51.09-2.55,102-8.64,153.04-12.59,35.93-2.78,72.1-3.13,107.89-7.05,60.82-6.68,121.9-8.62,182.87-12.35,36.13-2.22,72.45-1.53,108.68-2.21,333.41-6.3,417.11-8.78,600.12,2.39,32.81,2,84.2,5.54,147.68,11.69,15.48-2.32,41.25-6.17,73.15-10.83,169.81-24.85,197.83-26.84,260.06-40.63,79.15-17.54,67.64-21.8,109.71-27.09,59.11-7.43,94.56-.62,190.98,6.77,126.15,9.66,106.16,1.12,146.28,8.13,87.32,15.26,118.18,44.59,261.42,104.3,53.25,22.2,96.95,38.13,123.26,47.41,37.19-6.54,88.92-21.1,137.15-55.29,30.67-21.75,44.06-40.75,50.12-48.81,14.15-18.8,22.49-40.92,27-65.75,9.6-52.79,24.25-104.52,33.57-157.66,8.32-47.47,5.47-93.61-4.04-138.8-7.78-36.99-20.93-73.25-41.95-106.7-32.07-51.04-72.85-92.64-119.76-129.51-14.9-11.71-32.89-18.71-46.22-32.44-2.82,2.87-2.06,5.24-.03,8.59,7.86,12.9,15.5,25.96,22.65,39.28,15.57,28.99,20.21,60.94,23.51,92.99,1.81,17.61,4.01,35.88,1.29,53.1-3.72,23.53-6.26,46.98-7.7,70.7-.92,15.18-1.08,30.31-1.23,45.5-.31,29.63-14.4,56.28-28.77,80.78-6.35,10.82-14.03,20.57-22.66,29.48v-222.36h-1263.6v50.64h-1601.94v151.91h-349.91c-13.09-10.99-29.41-20.87-55.17-27.62-72.47-19.01-88.25,20.94-211.75,13.81-77.84-4.49-88.93-21.36-124.29-6.9-13.21,5.4-23.27,12.6-31.67,20.71h-67.3v80.85c-5.92,3.83-12.61,7.16-20.37,9.82-24.62,8.47-54.7.42-115.96-9.66-60.31-9.93-95-15.63-124.25-41.42-35.5-31.29-30.03-63.11-63.5-136.67-23.01-50.57-49.45-87.94-67.55-111,8.07,83.49,20.61,153.96,32.42,208.6,0,0,16.16,100.38,63.71,191.95v-.03Z"/>
        <path class="cls-8" d="M822.31,4790.77c2.13,1.75,4.26,3.51,6.39,5.26,286.37,249.77,572.73,499.53,859.09,749.3,15.25-4.77,30.49-9.53,45.73-14.29-7.45-21.12-14.63-41.4-21.66-61.21,10.33-23.93,20.21-46.99,27.49-70.98-36.3-98.91-72.75-197.78-108.85-296.77-19.39-53.18-39.86-105.79-69.11-154.57-18.12-30.22-41.47-55.48-71.64-75.82,147.94-22.7,288.02-63.83,421.6-126.69,151.8-71.44,286.75-165.96,398.82-291.64,183.3-205.57,280.53-448.65,309.18-720.24,14.63-138.65,5.69-276.89-22.62-413.51-34.37-165.85-93.36-322.36-181.56-467.3,0,0-73.01-118.23-167.45-213.44-18.55-18.7-32.8-31.07-32.8-31.07-5.84-5.07-9.48-7.98-26.67-22.45-9.01-7.58-16.38-13.82-21.27-17.97-1,1.71-1.95,4.04-1.64,6.69.1.85.24,1.08.22,1.35-.17,1.91-19.19,1.8-42.17,1l7.34,8.15c15.95,8.16,39.89,22.17,64.29,44.64,80.18,73.83,95.91,175.02,104.35,221.35,52.75,289.65,158.37,289.58,172.23,548.91,6.84,127.87-13.71,228.79-25.44,286.71-43.41,214.25-138.91,401.8-288.02,561.63-117.78,126.24-258,220.83-416.46,288.09-193.08,81.95-394.77,117.24-604.43,107.48-117.1-5.45-230.83-27.48-341.16-66.79-220.73-78.66-403-210.68-545.77-396.53-89.69-116.75-154.28-246.42-195.39-387.86-1.39-4.77,2.09-13.96-7.93-14.65,3.86,25.53,6.79,51.25,11.74,76.57,56.84,290.63,187.67,539.6,415.19,733.49,103.76,88.42,220.37,155.62,347.14,205.38.4-.74.83-1.48,1.24-2.21v.02Z"/>
        <path class="cls-8" d="M5224.57,3319.74c-34.56-165.83-93.37-322.41-181.57-467.38-68.57-112.7-141.94-187.42-167.46-213.48-28.77-29.37-54.35-52.53-73.1-68.78-.62,3.36.14,6.31,2.01,7.39.35.2.83.39,1.46.44,1.15.83,2.31,1.97,2.32,3.34.01,1.42-1.19,2.57-.96,2.79.12.11.6-.08,2.12-1.35,2.3.65,3.26,1.65,3.71,2.47.23.42.12.64.56,1.35.43.69,1.1,1.75,1.94,3.04,3.65,5.65,6.66,9.74,7.62,11.07,17.04,23.61,35.34,46.36,51.58,70.5,148.36,220.56,216.87,465.86,224.19,729.73,1.91,68.71-3.11,137.17-12.19,205.35-15.38,115.57-45.97,226.85-94.64,332.79-113.45,246.95-294.39,429.54-534.01,554.93-150.35,78.68-310.79,124.27-479.37,142.84-111.47,12.28-222.61,12.01-333.44-4.64-161.34-24.24-311.93-78.87-450.65-164.92-184.99-114.74-327.3-269.36-428.19-462.22-40.04-76.54-68.14-157.67-92.57-240.22.12,3.84-.09,7.72.39,11.52,18.24,144.35,58.65,282.21,121.53,413.42,72.87,152.04,172.29,283.72,300.66,393.46,60.33,51.57,125.56,95.83,194.05,135.58,3.59,3.05,9.07,7.39,16.26,11.76,58.42,35.56,130.66,13.71,157.14,7.03,40.21-10.13,127.73,2.65,302.76,28.22,113.52,16.59,222.79,33.14,260.24,67.44,5.21,4.77,29.08,28.27,66.16,35.74,9.41,1.89,17.4,2.3,22.75,2.34,3.83-.4,9.56-.71,16.39-1.82,140.55-22.92,275.81-63.04,404.93-123.6,237.63-111.45,426.52-276.28,553.88-507.63,98.8-179.5,152.82-371.95,160.81-576.98v-114.18c-2.71-76.55-11.67-152.39-27.3-227.33h0Z"/>
        <path class="cls-8" d="M2118.64,5537.47c-3.23-47.51-6.5-95.01-9.79-143.13-5.2,2.41-5.39,6.58-6.64,9.97-95.86,259.52-191.52,519.11-287.63,778.55-16.38,44.22-30.01,89.62-52.97,131.22-15.74,28.52-38.3,48.74-71.4,52.71-49.33,5.91-98.62,4.57-147.17-7.32-28.64-7.01-50.18-23.88-65.72-48.73-12.61-20.16-21.41-42.07-29.08-64.43-81.43-237.25-162.76-474.53-244.12-711.81-13.44-39.21-26.87-78.41-40.29-117.62-5.32,22.63-7.28,44.88-8.75,67.15-5.58,84.37-11.01,168.75-16.47,253.13-6.69,103.55-13.56,207.08-19.96,310.64-3.99,64.64-6.43,129.39-13.72,193.78-2.73,24.06-7.96,47.64-17.63,69.94-22.23,51.21-65.96,67.69-117.07,70.63-67.89,3.91-134.67-6.3-201.23-17.92-50.97-8.91-101.49-19.3-143.68-52.45-.81-.64-3.07.57-4.64.92-3.05,22.36-4.9,44.8-5.14,67.38-.51,48.1,13.23,92.5,38.59,132.55,22.7,35.86,61.34,50.41,99.03,64.23,68.59,25.16,140.55,34.74,212.62,42.92,57.11,6.48,114.04,7.86,169.29-12.76,36.74-13.72,70-30.96,88.4-68.87,19.4-39.97,32.79-81.61,36.76-125.68,11.76-130.34,17.6-261.1,26.57-391.64,2.78-40.56,5.29-81.15,8.19-125.77,3.61,8.45,5.84,12.83,7.42,17.43,49.88,145.84,99.3,291.83,149.72,437.48,20.43,59.01,36.47,119.77,67.43,174.8,12.74,22.64,29.57,40.45,53.09,52.09,67.46,33.36,139.15,40.67,212.08,29.59,58.1-8.82,105.83-36.03,128.03-95.47,5.17-13.86,12.44-26.94,17.57-40.81,69.86-188.84,139.52-377.75,209.22-566.64,1.98-5.75,2.69-11.63,2.3-17.75-2.5-38.31-4.74-76.63-7.31-114.94-5.2-77.79-10.54-155.58-15.84-233.37h-.02Z"/>
        <path class="cls-8" d="M4387.61,5710.93c.14,0,.27.02.41.03-.72-.47-1.65-1.09-2.48-1.63-2.55-1.81-5.29-3.48-7.91-5.24-4.52-3.02-9.74-6.54-15.56-10.56-18.96-13.05-24.94-17.9-28.45-15.81-1.38.82-5.67,4.67,1.94,29.92,8.3.53,16.61,1.05,24.9,1.57.37.72.8,1.42,1.12,2.16,16.49,37.06,24.95,76.11,27.78,116.22,8.49,120.38-34.53,221.64-117.28,307.1-78.23,80.78-173.95,135.04-276.52,178.1-126.06,52.93-257.64,85.69-392.56,106.53-102.67,15.86-205.85,23.79-309.62,25.67-59.37,1.08-118.59-2.28-177.69-7.05-50.11-4.04-99.58-11.49-135.6-52.63,1.94,44.87,3.81,89.61,12.81,133.97,16.49,81.21,63.25,130.27,145.01,147.8,50.77,10.88,101.97,13.57,153.37,16.29h157.08c183.69-6.77,363.63-35.49,538.81-92.05,141.98-45.85,276.65-105.19,391.32-203.99,120.52-103.84,209.7-303.12,143.05-489.02-27.61-77.01-69.58-140.97-133.96-187.37h0Z"/>
        <path class="cls-8" d="M2852.9,6117.72c-10.07-108.39-20.81-216.71-31.21-325.07-9.2-95.78-18.3-191.56-27.52-287.33-10.65-110.55-21.55-221.06-32.01-331.63-5.34-56.45-13.51-112.18-32.63-165.98-18.51-52.11-47.72-93.81-102.46-112.52-11.83-4.04-23.85-7.51-35.8-11.24,9.48,35.13,12.89,71.2,15.95,107.25,3.63,42.62,7.46,85.26,11.15,127.85,3.4,39.3,6.22,78.86,11.94,118.09,5.27,36.21,7.44,72.87,10.98,109.34,6.26,64.43,12.53,128.86,18.82,193.29,5.01,51.32,10.19,102.63,15.04,153.97,4.11,43.58,8.81,87.14,11.43,130.82,1.66,27.7,5.78,55.1,7.35,82.82,2.12,37.51,8.34,74.78,12.26,112.21,5.36,51.27,10.88,102.54,15.07,153.92,3.83,46.95,10.6,93.72,4.89,141.21-6.39,53.18-33.14,88.77-81.35,102.78-23.78,6.91-48.24,10.49-73.01,11-73.67,1.52-147.21-1.67-220.34-10.2-62.37-7.28-123.33-19.4-160.72-78.65,2.07,61.75,8.44,122.69,29.89,181.35,17.2,47.02,44.49,83.83,92.6,103.27,26.05,10.53,52.41,19.76,79.77,25.63,79.53,17.07,160.53,17.33,241.29,19.57,44.28,1.23,87.37-5.67,129.68-19.43,49.16-15.98,83.95-45.22,100.75-95.49,13.62-40.75,20.08-82,17.13-124.8-7.19-104.24-19.26-208.03-28.93-312.04h0Z"/>
        <rect class="cls-8" x="963.02" y="606" width="940.48" height="1033.2"/>
        <path class="cls-8" d="M4393.57,4155.98v-1033.2h-136.07c-23.93-23.17-51.85-47.41-83.03-74.42-25.18-21.82-50.62-40.69-82.24-57.73-24.03-12.95-49.37-23.58-76.09-31.89-80.15-24.95-161.68-26.3-243.64-12.83-94.23,15.48-177.62,55.36-248.66,118.99-19.59,17.54-36.87,37.04-52.46,57.89h-18.28v26.28c-9.55,14.67-18.49,29.81-26.82,45.37-41.92,78.29-62.22,163.1-68.47,250.44-7.8,109.06,12.31,191.25,24.74,239.79,4.23,16.52,23.88,90.83,70.56,171.41v299.9h940.48Z"/>
        <path class="cls-8" d="M1735.65,4155.98v-1033.2h-120.84c-48.83-67.55-111.91-118.96-191.3-151.51-89.04-36.51-181.05-41.24-274.6-25.76-127.53,21.11-229.67,79.92-303.44,177.27h-50.3v80.75c-19.35,37.94-30.45,69.28-38.75,94.55-13.36,40.65-40.66,126.26-37.78,240.54.57,22.67,4.4,128.49,56.04,250.57,6.89,16.28,13.73,30.6,20.5,43.54v323.26h940.48,0Z"/>
        <path class="cls-8" d="M3605.12,5069.16c-73.69-28.38-150.13-24.67-225.79,0h-141.37v1033.21h940.48v-527.64c4.23,1.48,8.74,2.39,14.06,2.11,15.18-.81,27.26-9.36,35.25-16.7,48.78-50.94,85.81-108.84,111.8-174.9,61.55-156.47-5.27-316.89-107.91-394.34-20.71-15.63-46.41-28.25-46.41-28.25-4.7-2.52-8.62-4.52-11.22-5.83,1.92,3.57,4.69,8.89,7.73,15.46,0,0,27.09,58.45,27.84,121.99.55,46.84-14.19,88.92-31.14,122.37v-147.48h-573.33Z"/>
      </g>
      <g>
        <g>
          <path class="cls-3" d="M2537.73,6439.91c-12.96,0-26.75-.31-44.73-1.01-58.83-2.28-116.28-5.04-172.55-13.54-51.95-7.85-85.8-21.95-109.77-45.7-24-23.79-38.26-57.43-46.23-109.06-5.35-34.63-7.46-70.15-9.5-104.48-.24-3.99-.47-7.98-.71-11.97-2.86-47.15-6.23-95.05-9.49-141.38-2.09-29.69-4.25-60.39-6.26-90.59-2.03-30.47-3.91-61.45-5.73-91.42-1.56-25.6-3.17-52.08-4.86-78.11-4.7-72.38-9.95-151.5-16.06-241.87-1.5-22.16-3.17-44.3-4.93-67.74-.83-11.09-1.69-22.47-2.57-34.27-.03-.49-.4-.88-.89-.95-.05,0-.1-.01-.15-.01-.42,0-.82.26-.97.67-1.2,3.16-2.21,5.83-3.11,8.18-1.59,4.16-2.84,7.46-4.04,10.69-103.42,279.72-206.83,559.45-310.22,839.18-9.43,25.51-18.08,44.41-28.06,61.29-17.52,29.65-43.34,46.59-78.92,51.77-10.32,1.51-21.27,2.23-33.45,2.23-15.73,0-31.67-1.23-47.08-2.42-7.01-.54-14.26-1.1-21.4-1.54-31.12-1.91-57.48-11.26-78.34-27.8-20.31-16.11-35.92-39.42-46.39-69.3-1.13-3.24-2.39-6.48-3.6-9.62-1.32-3.42-2.69-6.96-3.9-10.48-54.96-160.14-109.91-320.27-164.85-480.41l-73-212.75c-10.29-29.99-20.6-59.96-30.91-89.94-4.83-14.05-9.67-28.11-14.5-42.16-.15-.42-.54-.7-.98-.7h-.12c-.49.06-.87.44-.92.93-8.28,83.18-13.94,165.64-18.39,235.33-2.6,40.68-5.03,82.05-7.37,122.05-2.12,36.08-4.31,73.39-6.62,110.07-6.8,108.02-12.97,205.36-19.78,302.76-1.99,28.51-4.99,59.06-13.38,89.36-16.56,59.83-53.71,90.79-116.91,97.46-12.61,1.33-25.47,1.98-39.32,1.98-29.04,0-57.48-2.9-83.89-6.03-54.65-6.49-112.65-14.26-168.27-31.6-29.89-9.32-52.82-22.09-70.09-39.02-19.15-18.78-30.87-42.13-35.82-71.4v-75.82c.77-4.95,1.53-9.91,2.28-14.86,1.61-10.57,3.27-21.5,5.06-32.22,20.63-124.03,42.6-256.07,64.47-386.95,12.01-71.88,24.26-144.96,36.12-215.63,10.57-63.03,21.14-126.06,31.68-189.1,10.81-64.66,21.6-129.31,32.39-193.97,10.63-63.75,21.27-127.49,31.93-191.23l1.37-8.25c7.62-45.74,15.5-93.04,31.98-137.57,10.73-28.99,26.03-52.22,45.49-69.05,20.21-17.49,45.64-28.7,75.57-33.32,4.82-.74,9.7-1.6,14.41-2.43,2.2-.39,4.4-.78,6.6-1.15h105.69c6.8.56,13.72,1.17,20.41,1.77,14.82,1.32,30.14,2.68,45.25,3.54,44.85,2.55,88.75,5.51,132.73,13.7,37.62,7.01,70.61,20.56,98.05,40.27,27.96,20.09,51.08,47.23,68.72,80.68,15.18,28.8,27.53,56.33,37.75,84.17,35.15,95.81,70.86,193.22,105.39,287.43,34.92,95.27,71.02,193.77,106.57,290.64.51,1.38.92,2.8,1.35,4.31,1.42,4.88,2.89,9.94,7.73,13.55.19.14.4.21.62.21.24,0,.46-.08.66-.24,4.49-3.65,6.18-8.55,7.82-13.29.53-1.53,1.03-2.96,1.62-4.36,47.9-114.31,96.51-230.56,143.52-343,18.01-43.05,36.01-86.11,54.02-129.16,1.44-3.45,2.89-6.9,4.32-10.36,20.65-49.5,42-100.68,73.03-146.05,16.53-24.17,36.15-44.2,58.29-59.54,22.38-15.5,48.1-26.72,76.43-33.34,41.94-9.82,84.29-11.94,127.58-13.42l12.18-.42c34.86-1.2,70.91-2.44,106.36-2.44s64.65,1.17,92.66,3.59c37.32,3.22,66.46,13.67,89.09,31.96,22.65,18.3,38.96,44.59,49.85,80.38,2.43,7.98,4.36,15.26,5.9,22.24,8.8,39.82,12.53,81.01,16.13,120.85.44,4.87.88,9.74,1.33,14.61,3.52,38.13,7.42,76.86,11.17,114.33,2.55,25.44,5.2,51.73,7.7,77.61,3.14,32.41,6.22,65.38,9.2,97.26,2.71,28.9,5.5,58.79,8.33,88.18,3.35,34.83,6.83,70.23,10.2,104.47,2.87,29.2,5.85,59.4,8.72,89.11,2.98,30.83,5.97,62.19,8.85,92.51,2.84,29.92,5.79,60.85,8.73,91.28,4.59,47.44,9.33,95.67,13.91,142.3,1.62,16.54,3.25,33.09,4.88,49.64,1.58,16.12,3.25,32.51,4.86,48.35,3.58,35.21,7.28,71.62,10.29,107.47,1.26,14.98,2.82,30.17,4.32,44.87,4.11,40.11,8.35,81.58,6.99,122.75-2.65,80.03-38.91,120.73-117.55,131.94-21.7,3.09-44.59,4.54-71.99,4.54h-.02Z"/>
          <path class="cls-10" d="M1063.69,4696.07c6.79.56,13.7,1.17,20.38,1.77,14.82,1.32,30.15,2.68,45.26,3.54,44.82,2.54,88.68,5.5,132.6,13.69,37.47,6.98,70.32,20.47,97.63,40.09,27.83,19.99,50.84,47.02,68.41,80.32,15.16,28.76,27.49,56.25,37.69,84.04,35.11,95.7,70.78,193.01,105.28,287.12,34.95,95.37,71.1,193.99,106.69,290.96.49,1.35.9,2.75,1.33,4.24,1.39,4.81,2.98,10.27,8.11,14.1.37.28.8.42,1.24.42.46,0,.93-.15,1.31-.46,4.72-3.84,6.46-8.88,8.15-13.76.52-1.51,1.01-2.93,1.59-4.31,47.86-114.22,96.45-230.4,143.42-342.75,18.04-43.14,36.08-86.28,54.13-129.41,1.44-3.45,2.89-6.9,4.32-10.36,20.63-49.45,41.96-100.58,72.94-145.87,16.46-24.06,35.99-44.01,58.03-59.27,22.27-15.43,47.87-26.59,76.07-33.18,41.85-9.79,84.13-11.92,127.37-13.39,4.06-.14,8.12-.28,12.18-.42,34.86-1.2,70.9-2.44,106.32-2.44s64.59,1.17,92.58,3.59c37.1,3.2,66.06,13.58,88.52,31.73,22.48,18.17,38.68,44.3,49.51,79.87,2.42,7.96,4.35,15.2,5.88,22.16,8.79,39.75,12.51,80.91,16.11,120.7.44,4.88.88,9.75,1.33,14.63,3.52,38.14,7.42,76.88,11.18,114.34,2.55,25.43,5.2,51.73,7.7,77.59,3.14,32.41,6.22,65.36,9.2,97.24,2.71,28.91,5.51,58.81,8.33,88.2,3.35,34.84,6.83,70.25,10.2,104.48,2.87,29.2,5.85,59.39,8.72,89.09,2.98,30.81,5.97,62.14,8.84,92.44,2.85,29.94,5.79,60.9,8.74,91.34,4.59,47.47,9.34,95.72,13.92,142.38,1.62,16.52,3.25,33.04,4.86,49.56,1.58,16.13,3.25,32.51,4.86,48.36,3.58,35.2,7.28,71.61,10.29,107.45,1.26,14.98,2.82,30.19,4.32,44.89,4.1,40.07,8.34,81.5,6.98,122.6-2.63,79.43-38.61,119.81-116.66,130.95-21.66,3.09-44.49,4.53-71.86,4.53-12.95,0-26.73-.31-44.69-1.01-58.79-2.28-116.22-5.03-172.43-13.53-25.62-3.87-46.64-9.28-64.27-16.53-18.13-7.46-32.82-16.9-44.92-28.89-12.1-11.99-21.65-26.57-29.18-44.57-7.34-17.53-12.82-38.44-16.75-63.91-5.34-34.59-7.45-70.07-9.49-104.39-.24-3.99-.47-7.98-.71-11.97-2.86-47.15-6.23-95.06-9.49-141.39-2.09-29.69-4.25-60.38-6.25-90.58-2.02-30.46-3.91-61.44-5.73-91.4-1.56-25.61-3.17-52.09-4.86-78.13-4.7-72.38-9.95-151.5-16.06-241.87-1.5-22.16-3.17-44.3-4.93-67.75-.83-11.05-1.69-22.47-2.57-34.27-.07-.97-.81-1.77-1.78-1.91-.1-.01-.2-.02-.3-.02-.85,0-1.64.53-1.94,1.35-1.19,3.14-2.2,5.79-3.09,8.14-1.6,4.19-2.86,7.5-4.06,10.75-109.88,297.21-209.07,565.49-310.22,839.18-9.41,25.45-18.03,44.3-27.97,61.12-17.36,29.36-42.92,46.13-78.17,51.27-10.27,1.5-21.16,2.23-33.3,2.23-15.69,0-31.61-1.23-47-2.41-7.01-.54-14.27-1.1-21.41-1.54-30.9-1.89-57.07-11.17-77.76-27.58-20.16-15.98-35.65-39.14-46.05-68.83-1.14-3.25-2.4-6.51-3.61-9.65-1.32-3.41-2.68-6.94-3.88-10.44-55.22-160.89-111.35-324.48-165.64-482.68-24.07-70.16-48.15-140.32-72.22-210.48-10.31-30.04-20.81-60.58-30.96-90.1-4.81-14-9.63-28-14.44-41.99-.29-.85-1.09-1.4-1.97-1.4-.08,0-.16,0-.24.01-.97.11-1.73.89-1.83,1.86-8.28,83.19-13.94,165.66-18.4,235.38-2.6,40.68-5.03,82.05-7.37,122.05-2.12,36.08-4.31,73.38-6.62,110.06-6.8,108.01-12.97,205.35-19.78,302.76-1.99,28.45-4.98,58.95-13.35,89.15-8.37,30.24-21.8,52.67-41.06,68.54-18.95,15.63-43.47,24.84-74.96,28.16-12.57,1.32-25.39,1.97-39.21,1.97-28.99,0-57.39-2.89-83.77-6.03-54.6-6.48-112.54-14.25-168.08-31.56-29.73-9.27-52.52-21.95-69.68-38.77-9.18-9-16.79-19.35-22.61-30.75-6.07-11.89-10.4-25.35-12.89-40v-75.64c.76-4.93,1.52-9.86,2.27-14.8,1.61-10.56,3.27-21.49,5.06-32.2,20.57-123.7,42.5-255.46,64.47-386.94,12.01-71.9,24.27-144.99,36.13-215.68,10.39-61.96,21.14-126.03,31.67-189.05,10.82-64.7,21.79-130.48,32.41-194.09,10.45-62.64,21.25-127.41,31.91-191.11.46-2.75.92-5.49,1.37-8.24,7.61-45.7,15.48-92.94,31.93-137.38,10.67-28.83,25.87-51.91,45.19-68.63,20.06-17.36,45.32-28.49,75.05-33.09,4.84-.75,9.74-1.62,14.48-2.45,2.15-.38,4.31-.76,6.46-1.13h105.56M1063.77,4693.99h-105.82c-7.03,1.21-14.03,2.52-21.07,3.61-61.67,9.53-100.63,45.64-121.87,103.05-17.49,47.26-25.15,96.69-33.4,146.01-21.48,128.39-42.85,256.81-64.32,385.2-22.56,134.91-45.25,269.81-67.8,404.72-21.56,128.97-43.02,257.95-64.47,386.95-2.61,15.7-4.91,31.45-7.35,47.17v75.98c10.32,61.23,50.48,93.81,106.65,111.32,54.93,17.13,111.64,24.9,168.45,31.64,27.94,3.32,55.87,6.04,84.01,6.04,13.09,0,26.22-.59,39.43-1.98,62.72-6.62,100.86-36.97,117.81-98.21,8.12-29.33,11.31-59.45,13.42-89.57,7.05-100.89,13.44-201.83,19.78-302.77,4.87-77.36,9.05-154.76,13.99-232.12,5-78.32,10.56-156.6,18.39-235.3,15.14,44.03,30.3,88.06,45.41,132.1,79.28,231.05,158.55,462.12,237.85,693.16,2.32,6.76,5.14,13.35,7.51,20.11,20.87,59.56,61.84,93.89,125.65,97.8,22.84,1.39,45.61,3.96,68.55,3.96,11.15,0,22.34-.6,33.6-2.25,35.47-5.17,61.69-21.86,79.67-52.27,11.52-19.5,20.3-40.26,28.13-61.46,103.4-279.74,206.8-559.46,310.22-839.18,1.86-5.03,3.79-10.03,7.14-18.87,2.71,36.74,5.29,69.36,7.5,102.01,5.45,80.62,10.83,161.23,16.06,241.86,3.66,56.5,6.84,113.04,10.59,169.53,5.13,77.33,11.05,154.61,15.74,231.96,2.37,38.97,4.26,77.91,10.22,116.55,15.45,100.06,56.34,140.44,156.88,155.64,57.27,8.66,114.88,11.31,172.66,13.55,14.96.58,29.88,1.01,44.78,1.01,24.1,0,48.14-1.12,72.15-4.55,79.23-11.29,115.79-52.74,118.45-132.94,1.87-56.34-6.62-111.9-11.31-167.74-4.37-52-10.06-103.9-15.15-155.84-6.27-63.98-12.59-127.95-18.78-191.94-5.93-61.26-11.65-122.53-17.58-183.78-6.25-64.53-12.71-129.04-18.92-193.58-5.94-61.8-11.56-123.64-17.54-185.44-6.19-63.98-12.96-127.92-18.87-191.93-4.2-45.43-7.62-90.92-17.49-135.59-1.66-7.51-3.68-14.96-5.92-22.31-21.72-71.34-65.51-106.66-139.85-113.07-30.92-2.66-61.84-3.59-92.75-3.59-39.52,0-79.03,1.52-118.57,2.86-43.01,1.46-85.68,3.6-127.78,13.44-57.48,13.45-102.16,44.79-135.34,93.31-33.23,48.58-54.94,102.77-77.46,156.6-65.83,157.39-131.61,314.81-197.54,472.16-2.46,5.85-3.5,12.67-9.14,17.24-6-4.47-6.55-11.43-8.73-17.38-70.7-192.68-141.26-385.41-211.97-578.08-10.63-28.96-23.39-56.96-37.8-84.29-35.92-68.13-92.33-107.47-167.5-121.49-43.94-8.18-88.35-11.2-132.86-13.72-21.92-1.24-43.78-3.51-65.67-5.31h-.02Z"/>
        </g>
        <g>
          <path class="cls-6" d="M3272.86,6455.34c-25.18,0-51.49-.37-78.2-1.09-35.26-.96-81.66-3.13-127.92-11.57-39.28-7.17-67.09-21.43-85.01-43.62-16.51-20.45-25.78-48.56-29.18-88.45-5.51-64.63-9.15-130.52-12.66-194.24-1.48-26.94-3.02-54.81-4.68-82.19-3.6-59.45-7.19-118.91-10.77-178.36-3.07-50.83-6.13-101.66-9.2-152.49-1.09-18.04-2.18-36.09-3.26-54.13-3.18-52.93-6.47-107.66-9.87-161.48-2.07-32.73-4.31-66.01-6.49-98.19-4.36-64.34-8.86-130.86-12.09-196.35-1.24-25.14-3-50.68-4.69-75.39-3.52-51.34-7.17-104.43-6.41-156.83.24-16.54,2.56-32.53,5.03-47.35,5.03-30.18,16.38-56.17,33.73-77.26,16.91-20.55,40.06-37.08,68.8-49.12,51.33-21.52,106.64-30.78,160.14-39.75l1.1-.19c125-20.94,241.25-31.12,355.41-31.12,22.37,0,44.89.41,66.94,1.21,78.66,2.88,147.3,9.63,209.83,20.67,74.03,13.06,140.31,32.08,202.64,58.16,39.06,16.34,71.46,33.46,99.07,52.34,32.89,22.49,59.38,47.59,80.99,76.75,35.77,48.26,54.8,100.05,56.56,153.91,1.64,50.33-11.74,103.87-39.79,159.14-38.34,75.54-100.84,130.86-162.67,179.41-17.24,13.53-34.81,26.41-53.41,40.04-8.59,6.3-17.47,12.8-26.5,19.51-.33.25-.49.67-.39,1.08.1.4.43.71.84.78,13.35,2.23,26.48,4.14,39.17,5.99,23.33,3.41,45.37,6.62,67.38,11.45,48.58,10.65,90,23.43,126.62,39.09,43.19,18.47,80.13,40.97,112.93,68.79,34.25,29.05,61.22,63.07,80.16,101.13,18.46,37.08,29.83,79.07,33.79,124.79,3.14,36.29,1.71,71.65-4.28,105.1-5.76,32.2-15.91,63.61-30.17,93.38-13.67,28.53-31.54,56.44-53.12,82.97-20.57,25.28-45.18,50.11-73.15,73.82-46.85,39.71-99.14,73.92-159.87,104.6-51.59,26.05-109.56,49.58-177.23,71.93-104.48,34.51-219.2,59.65-350.71,76.85-83.88,10.97-171.99,16.31-269.36,16.31h-.03ZM3610.47,5737.32c-61.1,0-116.76,8.8-170.18,26.91-26.88,9.11-27.45,12.37-24.49,39.23,4.97,45.01,9.78,90.81,14.43,135.09,3.75,35.67,7.62,72.56,11.56,108.83,2.51,23.12,3.92,31.11,14.55,31.11,3.66,0,8.31-.92,14.75-2.18,1.21-.24,2.48-.49,3.82-.74,2.09-.4,4.25-.44,6.52-.47,1.05-.01,2.15-.03,3.23-.09,69.76-3.72,135.32-17.36,194.85-40.53,58.52-22.77,97.17-49.35,125.31-86.18,25.61-33.5,34.36-77.91,22.83-115.9-7.74-25.49-28.13-59.7-81.34-77.86-34.07-11.62-71.18-17.27-113.47-17.27-3.73,0-7.57.04-11.39.13-3.63-.06-7.34-.1-10.97-.1v.02ZM3489.62,5060.61c-46.44,0-92.51,9.23-136.94,27.45-13.38,5.49-17.92,13.7-16.16,29.29,4.15,36.85,7.42,74.44,10.58,110.78.6,6.82,1.19,13.64,1.79,20.46,3.04,34.58,6.01,69.74,8.89,103.75,1.61,19.07,3.23,38.13,4.86,57.2,1.08,12.57,6.96,18.17,19.06,18.17.36,0,.72,0,1.1-.01,31.91-.87,64.54-5.47,99.75-14.08,37.14-9.08,68.52-20.01,95.94-33.41,32.41-15.84,59.48-35.11,82.76-58.91,38.82-39.69,55.25-89.24,45.06-135.95-10.22-46.84-45.91-85.16-97.92-105.14-34.31-13.18-71.22-19.58-112.85-19.58-.82,0-1.64,0-2.45,0-1.14-.01-2.29-.01-3.44-.01h-.01Z"/>
          <path class="cls-10" d="M3496.63,4717.21c22.36,0,44.87.41,66.9,1.21,78.61,2.88,147.2,9.63,209.68,20.66,73.96,13.05,140.17,32.05,202.41,58.09,38.99,16.31,71.33,33.4,98.88,52.23,32.79,22.42,59.2,47.45,80.74,76.51,18.12,24.44,32.05,49.96,41.41,75.83,9.05,25.03,14.08,51.11,14.95,77.49.83,25.52-2.21,52.04-9.04,78.84-6.6,25.88-16.9,52.72-30.65,79.8-38.24,75.36-100.64,130.59-162.38,179.05-17.23,13.53-34.8,26.4-53.4,40.03-8.59,6.29-17.47,12.8-26.49,19.51-.67.5-.98,1.35-.78,2.16.19.81.86,1.43,1.68,1.56,13.37,2.23,26.49,4.14,39.18,5.99,23.31,3.41,45.33,6.62,67.31,11.43,48.52,10.63,89.88,23.4,126.43,39.02,43.1,18.42,79.95,40.88,112.67,68.62,34.14,28.95,61.03,62.87,79.91,100.81,18.4,36.96,29.73,78.83,33.68,124.41,3.14,36.2,1.7,71.47-4.27,104.83-5.74,32.1-15.87,63.43-30.09,93.12-13.63,28.45-31.46,56.3-52.99,82.76-20.52,25.23-45.09,50.02-73.01,73.68-46.78,39.66-99.01,73.82-159.66,104.46-51.54,26.03-109.47,49.54-177.1,71.88-104.42,34.49-219.08,59.61-350.52,76.81-83.83,10.97-171.9,16.3-269.25,16.3-25.17,0-51.47-.37-78.17-1.09-35.22-.96-81.57-3.13-127.76-11.56-20.1-3.66-36.71-9-50.81-16.31-13.69-7.11-24.67-15.92-33.57-26.94-16.37-20.28-25.57-48.2-28.95-87.89-5.51-64.61-9.14-130.48-12.66-194.19-1.48-26.95-3.02-54.82-4.68-82.23-3.61-59.56-7.19-119.12-10.79-178.68-3.06-50.72-6.12-101.45-9.18-152.17-1.1-18.14-2.18-36.27-3.28-54.41-3.18-52.84-6.46-107.48-9.86-161.21-2.07-32.75-4.32-66.03-6.5-98.21-4.36-64.33-8.86-130.84-12.09-196.31-1.24-25.16-3-50.71-4.69-75.41-3.52-51.32-7.17-104.38-6.41-156.74.24-16.47,2.55-32.41,5.02-47.2,5-30,16.27-55.82,33.5-76.77,16.8-20.41,39.82-36.84,68.39-48.83,51.22-21.48,106.48-30.73,159.91-39.68l1.1-.19c60.21-10.09,119.8-17.81,177.12-22.95,60.33-5.41,120.26-8.16,178.12-8.16M3381.69,5428.75c.37,0,.74,0,1.12-.01,31.99-.87,64.69-5.49,99.96-14.11,37.21-9.1,68.66-20.05,96.15-33.49,32.52-15.9,59.68-35.24,83.05-59.12,19.94-20.39,33.97-43.02,41.7-67.26,7.31-22.95,8.57-47.04,3.63-69.64-4.95-22.66-16.17-44.1-32.45-61.99-17.18-18.88-39.43-33.65-66.12-43.9-34.43-13.23-71.47-19.65-113.22-19.65-.82,0-1.64,0-2.43,0-1.16-.01-2.31-.01-3.47-.01-23.49,0-47.04,2.35-69.97,6.98-22.58,4.56-45.25,11.47-67.37,20.54-13.91,5.7-18.62,14.21-16.8,30.36,4.15,36.84,7.42,74.41,10.58,110.75.6,6.82,1.19,13.64,1.79,20.46,3.05,34.61,6.02,69.82,8.89,103.86,1.58,18.71,3.22,38.06,4.84,57.09,1.12,13.05,7.51,19.13,20.1,19.13M3621.47,5736.38c-3.67-.06-7.37-.1-10.99-.1-61.21,0-116.98,8.82-170.51,26.97-14.14,4.79-20.59,7.69-23.92,13.24-3.43,5.71-2.76,13.61-1.27,27.09,4.97,45,9.78,90.8,14.43,135.08,3.75,35.67,7.62,72.56,11.56,108.83,2.48,22.79,3.94,32.04,15.59,32.04,3.76,0,8.46-.92,14.96-2.19,1.21-.24,2.48-.49,3.82-.74,2-.39,4.11-.42,6.33-.45,1.07-.01,2.17-.03,3.27-.09,34.2-1.82,67.59-6.03,99.23-12.49,33.11-6.76,65.4-16.22,95.94-28.11,27.11-10.55,49.61-21.77,68.77-34.3,22.98-15.02,41.63-32.11,57-52.22,12.31-16.1,21.03-35.28,25.22-55.46,4.36-20.98,3.59-42.2-2.23-61.37-5.29-17.42-14.53-32.84-27.48-45.82-14.14-14.19-32.49-25.19-54.52-32.71-34.17-11.66-71.4-17.33-113.8-17.33-3.72,0-7.55.04-11.37.13M3496.63,4715.13c-119.21,0-237.76,11.39-355.59,31.13-54.81,9.18-109.69,18.28-161.47,40-57.29,24.02-92.85,65.38-103.15,127.17-2.62,15.7-4.81,31.45-5.04,47.51-1.12,77.66,7.28,154.87,11.1,232.28,4.85,98.25,12.39,196.37,18.58,294.55,4.54,71.86,8.79,143.74,13.13,215.61,6.67,110.28,13.3,220.57,19.97,330.85,5.58,92.17,9.5,184.48,17.34,276.46,6.38,74.86,33.7,118.18,115.03,133.01,42.39,7.73,85.31,10.43,128.08,11.59,26.09.71,52.17,1.1,78.22,1.1,90.03,0,179.88-4.59,269.52-16.31,119.28-15.6,236.63-39.15,350.9-76.89,122.16-40.35,238.37-92.73,337.45-176.72,109.73-93.02,173.99-207.28,161.09-356.16-7.88-90.89-44.39-167.33-114.31-226.62-69.5-58.95-152.36-88.9-240-108.1-34.25-7.51-69.14-11.21-106.6-17.45,28.29-21.02,54.6-39.68,79.94-59.57,64.51-50.64,125.25-105.46,162.95-179.75,54.45-107.29,57.58-213.71-16.86-314.14-45.97-62.01-110.5-100.14-180.49-129.42-132-55.22-271.34-73.73-412.83-78.9-22.35-.82-44.68-1.21-66.98-1.21h0ZM3381.69,5426.67c-12.15,0-17.06-5.94-18.03-17.22-4.59-53.65-9.02-107.31-13.74-160.95-3.85-43.78-7.46-87.6-12.37-131.27-1.61-14.32,1.82-22.59,15.52-28.2,43.87-17.98,89.26-27.37,136.55-27.37,1.15,0,2.3,0,3.45.01.81,0,1.63,0,2.44,0,38.62,0,76.29,5.61,112.48,19.51,108.17,41.55,133.62,156.46,52.5,239.39-49.05,50.14-111.49,75.73-178.21,92.04-32.62,7.98-65.76,13.13-99.52,14.05-.36,0-.71.01-1.07.01h0ZM3621.47,5738.46c3.77-.09,7.57-.13,11.37-.13,37.3,0,75.7,4.45,113.13,17.22,100.42,34.26,102.21,134.34,58.03,192.13-32.3,42.26-76.69,67.09-124.86,85.84-62.47,24.31-127.62,36.89-194.53,40.46-3.29.17-6.67-.04-9.88.58-8.28,1.6-14.13,2.9-18.37,2.9-9.38,0-10.93-6.38-13.52-30.18-8.82-81.29-17.01-162.65-25.98-243.92-2.96-26.79-2.34-29.27,23.79-38.13,54.51-18.48,110.6-26.87,169.85-26.87,3.66,0,7.32.03,10.99.1h0Z"/>
        </g>
        <g>
          <path class="cls-9" d="M1195.82,4656.6c-105.06,0-209.66-13.71-310.9-40.75-124.43-33.23-241.54-85.43-348.11-155.15-105.21-68.83-198.13-153.41-276.22-251.4-78.85-98.96-141.01-209.67-184.73-329.05-45.09-123.12-69.86-253.68-73.62-388.08-2.24-79.77,2.86-162.61,15.57-253.26,12.01-85.62,30.57-167.6,55.16-243.65,26.05-80.6,59.81-157.44,100.32-228.38,51.81-90.72,111.59-172.25,177.68-242.32,65.34-69.28,138.69-129.31,218.01-178.43,78.4-48.55,164.86-87.81,256.95-116.67,91.01-28.53,190.1-47.72,294.52-57.03,9.24-.83,18.67-1.09,27.8-1.34,14.64-.41,29.78-.83,44.55-3.58h89.13c1.33.21,2.68.47,4,.73,2.94.57,5.98,1.17,9.03,1.21,78.62,1.27,158.28,11.13,243.54,30.12,127.47,28.4,245.06,74.19,349.53,136.08,53.07,31.44,103.85,67.7,150.95,107.77,47.59,40.5,92.75,86.01,134.21,135.3,47.56,56.53,90.02,116.96,126.21,179.61,35.33,61.17,65.71,126.22,90.26,193.33,23.94,65.44,43.05,134.72,56.8,205.94,13.38,69.32,22.07,142.46,25.82,217.41,5.25,104.94-2.27,209.31-22.36,310.21-13.86,69.61-33.07,136.95-57.09,200.17-24.12,63.45-53.76,124.5-88.1,181.44-34.48,57.18-74.66,111.82-119.42,162.4-44.95,50.8-95.77,98.93-151.06,143.04-55.62,44.39-114.77,84.1-175.79,118.05-59.79,33.25-123.06,61.91-188.08,85.17-63.64,22.77-130.74,41-199.45,54.21-67.18,12.92-137.8,21.39-209.91,25.18-21.7,1.14-43.63,1.72-65.18,1.72h-.02,0ZM1245.73,2945.92c-28.56,0-58.61,2.35-89.31,6.98-155.12,23.4-271.57,100.69-346.1,229.71-43.24,74.85-70.13,155.04-79.92,238.35-9.38,79.82-3.27,164.21,18.16,250.84,33.93,137.17,110.03,240.54,226.19,307.24,39.61,22.75,82.77,39.82,128.23,50.74,42.6,10.23,88.75,15.41,137.16,15.41h1.35l5.63-.1c26.34-.43,53.57-.88,80.11-5.6,66.32-11.79,125.7-36.1,176.51-72.26,49.72-35.39,92.55-83.07,127.28-141.73,46.83-79.05,74.49-171.48,84.58-282.58,9.66-106.38-1.53-199.46-34.2-284.56-23.71-61.76-55.02-115.3-93.05-159.14-40.47-46.65-89.99-83.99-147.18-110.96-30.62-14.44-63-25.32-96.24-32.32-31.58-6.66-64.96-10.04-99.2-10.04h0Z"/>
          <path class="cls-10" d="M1281.85,2168.55c1.28.2,2.6.46,3.88.71,2.98.58,6.08,1.18,9.21,1.23,39.88.65,81.08,3.63,122.44,8.86,39.2,4.96,79.87,12.1,120.89,21.24,63.33,14.11,124.68,32.62,182.35,55.01,58.28,22.63,114.42,49.87,166.89,80.95,53.02,31.42,103.76,67.64,150.8,107.66,47.55,40.45,92.66,85.94,134.09,135.17,47.51,56.48,89.95,116.86,126.11,179.46,35.31,61.12,65.65,126.11,90.19,193.17,23.92,65.38,43.02,134.62,56.76,205.78,13.37,69.27,22.05,142.36,25.8,217.27,2.61,52.06,2.07,104.39-1.57,155.56-3.7,51.79-10.68,103.74-20.77,154.39-13.85,69.55-33.04,136.84-57.05,200-24.1,63.39-53.71,124.38-88.02,181.28-34.45,57.12-74.59,111.71-119.31,162.25-44.91,50.75-95.69,98.84-150.93,142.92-55.58,44.35-114.68,84.04-175.65,117.95-59.73,33.23-122.96,61.85-187.92,85.09-63.59,22.74-130.64,40.97-199.29,54.17-67.13,12.9-137.7,21.37-209.77,25.17-21.68,1.14-43.6,1.72-65.15,1.72-52.29,0-104.89-3.41-156.31-10.13-51.71-6.76-103.63-17.05-154.32-30.58-124.32-33.2-241.33-85.35-347.81-155.02-105.11-68.77-197.96-153.28-275.98-251.18-78.78-98.87-140.88-209.48-184.56-328.76-45.05-123-69.8-253.47-73.56-387.75-2.23-79.71,2.86-162.5,15.57-253.08,12.01-85.57,30.55-167.48,55.12-243.48,26.03-80.53,59.76-157.31,100.23-228.19,25.96-45.45,54.1-88.92,83.65-129.19,29.38-40.04,60.96-78.04,93.89-112.94,32.73-34.71,67.71-67.33,103.95-96.97,36.04-29.47,74.34-56.82,113.85-81.28,39.28-24.33,80.86-46.48,123.57-65.86,42.47-19.27,87.27-36.33,133.14-50.71,45.61-14.3,93.56-26.34,142.54-35.81,48.69-9.41,99.75-16.54,151.76-21.18,9.2-.82,18.62-1.08,27.74-1.34,14.65-.41,29.8-.83,44.62-3.58h88.95M1240.13,4046.23h1.39c1.88-.03,3.76-.06,5.63-.1,26.37-.43,53.64-.88,80.26-5.61,33.41-5.94,65.29-15.09,94.77-27.21,29.18-11.99,56.82-27.21,82.15-45.23,25.05-17.83,48.54-38.91,69.81-62.64,21.02-23.47,40.46-50.18,57.77-79.4,24.94-42.1,44.02-86.81,58.33-136.68,12.9-44.94,21.53-92.81,26.39-146.34,9.68-106.54-1.53-199.77-34.27-285.03-11.69-30.44-25.28-59.08-40.41-85.13-15.66-26.96-33.43-51.95-52.82-74.32-20.01-23.06-42.35-44.01-66.4-62.26-24.74-18.77-52.04-35.24-81.12-48.96-30.69-14.48-63.15-25.38-96.47-32.4-31.65-6.67-65.1-10.06-99.41-10.06h0c-28.61,0-58.72,2.35-89.47,6.99-155.45,23.46-272.15,100.91-346.85,230.22-21.87,37.86-39.73,77.38-53.06,117.46-13.06,39.24-22.14,80.05-26.99,121.3-4.74,40.37-5.56,82.23-2.43,124.41,3.07,41.27,10,83.94,20.61,126.8,16.64,67.26,43.7,127.06,80.43,177.73,18.83,25.99,40.56,50.05,64.59,71.51,24.45,21.84,51.93,41.58,81.66,58.65,39.7,22.8,82.94,39.91,128.51,50.85,42.67,10.25,88.9,15.45,137.41,15.45M1282.01,2166.47h-89.31c-23.9,4.47-48.22,2.77-72.35,4.92-417.38,37.24-738.42,228.07-947.96,594.98-83.7,146.57-132.19,305.51-155.61,472.41-11.81,84.13-17.97,168.58-15.59,253.43,15.4,548.98,379.66,990.12,883.45,1124.65,102.31,27.32,206.2,40.78,311.17,40.78,21.71,0,43.45-.58,65.25-1.72,286.62-15.09,547.84-102.51,773.82-282.83,222.83-177.81,360.41-408.23,416.04-687.67,20.42-102.58,27.59-206.34,22.38-310.46-14.88-297.21-105.84-566.9-299.34-796.91-167.65-199.27-381.72-323-635.25-379.49-80.21-17.87-161.41-28.81-243.75-30.15-4.33-.07-8.64-1.27-12.96-1.94h0ZM1240.13,4044.15c-93.78,0-183.05-19.03-264.88-66.01-120.06-68.93-192.99-174.4-225.7-306.59-42.04-169.93-26.87-335.18,61.66-488.42,76.43-132.29,194.65-206.46,345.36-229.2,29.96-4.52,59.72-6.97,89.16-6.97,66.83,0,132.13,12.61,194.99,42.26,117.96,55.64,193.7,149.72,239.7,269.53,35.22,91.74,42.98,186.8,34.14,284.1-9.07,99.92-32.97,195.24-84.44,282.14-68.9,116.32-168.72,189.6-303.08,213.49-28.31,5.04-56.97,5.18-85.56,5.67h-1.35Z"/>
        </g>
        <g>
          <path class="cls-12" d="M3828.58,4656.61c-105.42,0-210.23-13.78-311.51-40.93-125.78-33.73-243.98-86.75-351.31-157.58-105.68-69.75-198.84-155.43-276.88-254.65-78.63-99.97-140.3-211.67-183.3-331.99-44.28-123.86-68.02-254.95-70.58-389.61-1.47-77.52,3.68-157.1,15.78-243.3,12.2-87,31.19-170.29,56.45-247.54,26.73-81.79,61.43-159.7,103.11-231.57,51.97-89.61,111.8-170.13,177.81-239.34,65.25-68.4,138.38-127.68,217.38-176.17,78.06-47.92,164.03-86.68,255.53-115.18,90.4-28.16,188.75-47.11,292.3-56.32,9.23-.82,18.65-1.08,27.75-1.34,14.65-.41,29.8-.83,44.58-3.58h89.13c1.33.21,2.68.47,4,.73,2.94.58,5.99,1.17,9.04,1.21,72.05,1.01,146.96,9.83,228.99,26.94,99.61,20.77,193.67,52.36,279.58,93.87,88.77,42.9,171.41,97.63,245.61,162.7,56.82,49.82,108.67,104.37,154.11,162.15,44.41,56.47,83.98,117.65,117.61,181.83,32.82,62.65,60.94,129.98,83.56,200.12,22.04,68.35,39.52,141.37,51.93,217.02,5.7,34.75,9.09,70.37,12.35,104.81.96,10.16,1.96,20.65,3,30.97v168.47c-5.55,59.2-11.02,112.59-21.72,166.47-13.82,69.6-33,136.94-57,200.15-24.08,63.44-53.7,124.49-88.01,181.44-34.45,57.18-74.6,111.82-119.32,162.43-44.91,50.81-95.7,98.95-150.95,143.09-55.59,44.41-114.7,84.15-175.69,118.11-59.75,33.27-123,61.96-187.99,85.24-63.61,22.79-130.69,41.06-199.38,54.31-67.15,12.95-137.76,21.45-209.85,25.3-22.02,1.17-44.27,1.77-66.13,1.77h0ZM3855.18,4045.09c2.62.01,5.17.02,7.71.02,59.34,0,96.66-3.75,133.11-13.35,69-18.19,129.26-50.3,179.1-95.43,47.07-42.62,86.42-98.29,116.96-165.47,30.86-67.89,49.5-144.7,56.98-234.83,8.55-102.96-2.68-193.37-34.31-276.39-23.66-62.1-55.01-115.94-93.16-160.02-40.59-46.89-90.32-84.4-147.8-111.47-30.58-14.4-62.9-25.24-96.09-32.23-31.53-6.64-64.86-10-99.04-10-28.66,0-58.83,2.37-89.65,7.03-153.93,23.3-269.75,99.71-344.24,227.11-43.95,75.16-71.31,155.77-81.32,239.59-9.59,80.25-3.5,165.19,18.12,252.46,33.95,137.11,110.12,240.44,226.37,307.09,74.11,42.49,161.22,65.89,245.27,65.89h2,0Z"/>
          <path class="cls-10" d="M3914.74,2168.55c1.28.2,2.6.46,3.88.71,2.99.58,6.08,1.19,9.23,1.23,71.98,1.01,146.82,9.82,228.8,26.92,49.35,10.29,97.68,23.31,143.65,38.7,46.76,15.64,92.41,34.18,135.69,55.1,43.99,21.26,86.79,45.57,127.19,72.28,41.06,27.14,80.82,57.5,118.18,90.26,56.77,49.78,108.58,104.28,153.97,162.01,44.37,56.42,83.91,117.55,117.5,181.67,32.8,62.6,60.88,129.87,83.49,199.96,22.03,68.3,39.49,141.26,51.9,216.86,5.69,34.72,9.08,70.32,12.35,104.74.96,10.14,1.96,20.62,3,30.93v168.37c-5.55,59.15-11.01,112.49-21.7,166.32-13.81,69.55-32.98,136.82-56.95,199.98-24.06,63.39-53.65,124.37-87.93,181.27-34.41,57.12-74.53,111.72-119.21,162.27-44.87,50.76-95.62,98.86-150.82,142.96-55.54,44.37-114.6,84.08-175.55,118.02-59.7,33.25-122.9,61.9-187.84,85.17-63.56,22.77-130.59,41.03-199.22,54.26-67.11,12.94-137.66,21.44-209.7,25.28-22,1.17-44.23,1.76-66.08,1.76-52.45,0-105.14-3.42-156.63-10.16-51.85-6.79-103.87-17.13-154.61-30.74-125.68-33.7-243.77-86.67-351-157.45-105.59-69.69-198.66-155.29-276.63-254.43-78.56-99.88-140.17-211.48-183.14-331.7-44.23-123.76-67.96-254.74-70.52-389.28-1.47-77.47,3.68-156.99,15.77-243.13,12.19-86.95,31.17-170.17,56.41-247.36,13.19-40.35,28.4-80.01,45.21-117.9,17.26-38.9,36.71-77.08,57.82-113.48,26.04-44.9,54.24-87.83,83.81-127.6,29.4-39.54,60.97-77.06,93.86-111.54,32.69-34.27,67.59-66.49,103.74-95.76,35.93-29.1,74.1-56.1,113.43-80.25,39.11-24.01,80.48-45.88,122.97-65.02,42.24-19.02,86.76-35.85,132.33-50.05,45.3-14.11,92.92-26,141.53-35.36,48.31-9.29,98.97-16.33,150.56-20.92,9.19-.82,18.6-1.08,27.69-1.33,14.66-.41,29.82-.83,44.65-3.58h88.95M3853.18,4046.13h1.99c2.61.01,5.17.02,7.71.02,59.45,0,96.85-3.75,133.39-13.39,35.05-9.24,68.08-22.12,98.17-38.27,29.32-15.74,56.69-35.05,81.36-57.39,23.98-21.71,46.11-46.92,65.77-74.93,19.05-27.14,36.36-57.73,51.44-90.88,30.91-68,49.58-144.92,57.07-235.18,8.55-103.12-2.68-193.67-34.37-276.85-11.66-30.61-25.26-59.42-40.41-85.62-15.67-27.1-33.48-52.24-52.94-74.71-20.07-23.18-42.49-44.23-66.65-62.56-24.85-18.86-52.27-35.4-81.5-49.17-30.65-14.43-63.05-25.3-96.32-32.3-31.6-6.65-65-10.02-99.25-10.02-28.72,0-58.93,2.37-89.81,7.05-154.25,23.35-270.33,99.93-344.99,227.62-22.23,38.03-40.39,77.73-53.97,118.02-13.28,39.43-22.54,80.47-27.5,121.97-4.85,40.6-5.72,82.72-2.59,125.18,3.07,41.53,10.04,84.48,20.73,127.66,34.02,137.4,110.35,240.95,226.87,307.74,38.88,22.29,81.14,39.32,125.59,50.62,40.25,10.22,80.7,15.41,120.2,15.41M3914.9,2166.47h-89.31c-23.9,4.47-48.22,2.77-72.33,4.92-413.89,36.81-733.62,225.07-943.84,587.53-86.09,148.43-135.89,309.8-159.69,479.49-11.33,80.81-17.34,161.92-15.79,243.46,10.45,549.59,372.89,998.09,882.84,1134.83,102.49,27.48,206.6,40.97,311.78,40.97,22.02,0,44.08-.59,66.19-1.77,286.54-15.25,547.68-102.77,773.5-283.18,222.68-177.89,360.15-408.3,415.65-687.7,10.94-55.09,16.51-110.82,21.74-166.62v-168.58c-4.58-45.36-7.98-90.85-15.37-135.9-49.27-300.18-176.47-559.12-407.55-761.73-151.61-132.94-328.75-215.72-525.67-256.8-75.54-15.75-151.86-25.87-229.2-26.96-4.34-.06-8.65-1.27-12.97-1.94h0ZM3853.18,4044.05c-74.35,0-163.24-19.01-244.75-65.75-120.09-68.85-193.14-174.24-225.88-306.44-42.37-171.12-26.91-337.34,63.1-491.28,76.47-130.79,194.12-204,343.5-226.62,30.08-4.55,59.94-7.02,89.5-7.02,66.72,0,131.93,12.57,194.69,42.13,118.56,55.84,194.53,150.41,240.44,270.92,33.94,89.09,42.09,181.36,34.25,275.93-6.75,81.31-23.06,160.09-56.89,234.49-59.41,130.7-153.36,222.87-295.38,260.32-38.01,10.02-76.71,13.32-132.86,13.32-2.53,0-5.1,0-7.7-.02h-2.01Z"/>
        </g>
        <g>
          <path class="cls-1" d="M798.15,2136.34c-27.44,0-52.38-1.4-76.23-4.29-42.12-5.1-79.03-17.41-109.72-36.62-32.32-20.23-58.85-48.78-78.82-84.85-17.82-32.19-31.64-67.15-41.06-103.92-38.75-151.13-60.32-317.12-65.94-507.45-2.11-71.49.68-142.05,5.52-225.98,6.88-119.38,21.25-228.86,43.91-334.7,34.84-162.73,86.16-298.98,156.88-416.56,33.49-55.68,71.09-106.52,111.75-151.12,40.95-44.92,86.19-84.78,134.42-118.46,48.59-33.93,101.63-62.56,157.62-85.1,56.41-22.7,117.42-39.87,181.36-51.02,29.54-5.15,59.8-8.23,89.06-11.21,10.46-1.06,21.27-2.16,31.91-3.34h112.28c.97.2,1.96.44,2.93.67,2.2.53,4.47,1.09,6.78,1.23,52.42,3.34,106.69,14.04,161.31,31.8,80.81,26.28,156.13,65.04,223.88,115.22,64.83,48.01,124.62,107.88,177.71,177.94,42.61,56.23,80.61,117.06,112.94,180.81,30.48,60.09,57.01,124.93,78.85,192.7,39.09,121.28,65.01,256.26,79.25,412.65,3.7,40.59,5.15,81.95,6.55,121.96.53,15.11,1.08,30.73,1.74,46.09.65,15.16,1.75,20.46,11.51,20.46,3.02,0,6.85-.49,12.44-1.32,8.59-1.29,17.31-2.87,25.74-4.4,19.35-3.5,39.34-7.13,59.03-7.47,51.67-.89,104.13-3.22,154.86-5.47,35.83-1.59,72.87-3.24,109.31-4.36,55.63-1.71,112.21-2.77,166.93-3.79,38.41-.72,78.12-1.46,117.17-2.43,2.42-.06,4.87-.09,7.5-.09,9.07,0,18.28.36,27.2.71,8.9.35,18.1.71,27.14.71,4.45,0,8.52-.08,12.44-.26,15.46-.69,32.37-1.01,53.2-1.01,11.07,0,22.32.09,33.21.17,10.89.08,22.14.17,33.22.17,6.23,0,11.89-.03,17.31-.08,4.52-.05,9.27-.07,14.12-.07,20.21,0,40.79.4,60.69.78,9.5.19,19.33.37,28.99.52,74.25,1.11,172.09,3.23,270.59,9.82,71.92,4.81,147.14,11.41,223.58,19.62,199.74,21.43,359.22,54.02,501.89,102.56,99.61,33.89,176.17,73.21,240.91,123.73,59.87,46.72,100.24,98.04,123.41,156.9,10.04,25.51,16.33,53.92,19.2,86.86,1.68,19.21.49,40.68-3.61,65.65-2.28,13.8-3.79,27.91-5.25,41.55-.51,4.77-1.04,9.7-1.59,14.52-2.97,25.96-9.64,51.41-16.09,76.02-2.95,11.23-5.99,22.85-8.64,34.36-1.86,8.06-7.39,15.87-12.56,22.44-30.05,38.23-71.04,65.29-125.3,82.7-45.5,14.6-94.86,21.4-155.38,21.4-32.89,0-66.4-2.05-94.86-4.04-100.48-7.06-201.9-21.69-299.99-35.83l-4.61-.67c-81.88-11.81-165.35-22.19-246.08-32.23-13.49-1.68-26.98-3.36-40.47-5.04-111.99-13.99-226.43-21.14-337.11-28.04-16.57-1.03-33.14-2.07-49.71-3.12-111.16-7.08-230.53-10.38-375.66-10.38-13.62,0-27.79.03-42.15.08-8.05.03-16.68.05-26.38.05-11.36,0-22.72-.02-34.09-.04-11.37-.02-22.74-.04-34.11-.04-34.45,0-75.08.18-115.22,1.55-47.68,1.62-96.2,2.28-143.11,2.9-28.38.38-57.74.78-86.6,1.38-13.76.28-27.7,1.45-41.2,2.57-4.87.4-9.91.83-14.85,1.19-32.19,2.41-64.37,4.84-96.55,7.28-37.4,2.83-76.07,5.75-114.11,8.59-24.43,1.82-49.27,3.62-73.3,5.36-23.46,1.7-47.72,3.45-71.58,5.23-36.19,2.7-72.99,5.47-108.58,8.16-34.03,2.57-68.06,5.14-102.09,7.68-22.92,1.71-46.22,3.41-68.76,5.04-25.48,1.85-51.84,3.77-77.75,5.72-31.94,2.4-64.41,4.88-95.81,7.28-36.02,2.75-73.27,5.6-109.91,8.33-25.22,1.89-50.88,3.72-75.68,5.49-24.3,1.74-49.42,3.54-74.13,5.38-32.96,2.46-66.47,5.02-98.88,7.48-35.02,2.67-71.23,5.43-106.85,8.07-18.21,1.35-36.73,2.61-54.64,3.82-31.21,2.12-63.49,4.3-95.18,7.08-37.71,3.3-78.12,6.36-118.05,6.36h-.01v.04ZM1296.58,819.63c-2.74,0-5.54.03-8.3.11-119.07,3.17-207.8,64.98-249.85,174.05-20.24,52.51-31.78,113.84-30.85,164.07.08,57.67,4.59,110.34,13.76,161,8.57,47.36,21.35,93.39,39.05,140.69,6.3,16.83,8.42,22.51,18.74,22.51,3.77,0,8.66-.72,15.43-1.72l1.53-.23c81.68-12.01,168.75-24.59,266.16-38.45,128.67-18.31,234.57-33.21,333.29-46.88,7.5-1.04,12.14-3.18,14.6-6.74,2.52-3.65,2.87-8.71,1.12-16.4-12.6-55.64-28.59-121.26-51.55-186.06-18.96-53.52-37.21-96.5-57.42-135.28-24.4-46.81-51.32-86.63-82.34-121.75-64.72-73.3-137.79-108.92-223.38-108.92h0Z"/>
          <path class="cls-10" d="M1450.98,2.77c.92.19,1.83.41,2.79.65,2.24.54,4.56,1.11,6.96,1.26,26.82,1.71,54.25,5.35,81.53,10.81,26.06,5.22,52.81,12.26,79.51,20.95,40.79,13.26,80.44,29.8,117.89,49.15,36.66,18.94,72.22,41.12,105.7,65.92,32.75,24.26,64.44,51.7,94.18,81.58,29.06,29.2,57.1,61.55,83.32,96.15,42.57,56.18,80.54,116.96,112.84,180.65,30.46,60.04,56.96,124.83,78.79,192.55,39.07,121.21,64.97,256.12,79.2,412.42,3.69,40.56,5.14,81.92,6.55,121.92.53,15.1,1.08,30.72,1.74,46.08.35,8.2.82,12.96,2.39,16.21,2.25,4.65,6.6,5.24,10.15,5.24,3.08,0,6.96-.49,12.6-1.34,8.6-1.29,17.33-2.87,25.77-4.4,19.3-3.5,39.26-7.12,58.86-7.45,51.68-.89,104.15-3.22,154.89-5.47,35.82-1.59,72.86-3.24,109.31-4.36,55.62-1.71,112.2-2.77,166.93-3.79,38.4-.72,78.11-1.46,117.16-2.43,2.41-.06,4.86-.09,7.46-.09,9.05,0,18.26.36,27.16.71,8.91.35,18.12.71,27.18.71,4.46,0,8.55-.08,12.48-.26,15.45-.69,32.34-1.01,53.15-1.01,11.06,0,22.31.09,33.2.17,10.89.08,22.15.17,33.22.17,6.2,0,11.87-.03,17.32-.08,4.52-.05,9.27-.07,14.12-.07,20.21,0,40.79.4,60.69.78,9.5.19,19.32.37,28.97.52,74.24,1.11,172.09,3.23,270.53,9.82,71.9,4.81,147.1,11.41,223.54,19.61,94.07,10.09,177.07,22.31,253.76,37.34,89.47,17.54,170.55,38.86,247.9,65.17,47.01,16,88.12,32.91,125.68,51.7,42.81,21.42,80.4,44.93,114.93,71.87,28.76,22.44,52.36,45.25,72.18,69.74,21.97,27.16,38.62,55.52,50.91,86.72,10.01,25.42,16.27,53.74,19.13,86.57,1.67,19.12.49,40.5-3.61,65.39-2.28,13.83-3.79,27.95-5.26,41.61-.51,4.77-1.04,9.7-1.59,14.52-2.95,25.88-9.62,51.3-16.07,75.88-2.95,11.24-5.99,22.86-8.65,34.39-1.81,7.87-7.26,15.55-12.35,22.03-29.92,38.07-70.74,65.01-124.8,82.36-45.39,14.57-94.66,21.35-155.06,21.35-32.86,0-66.35-2.05-94.79-4.04-100.44-7.06-201.85-21.68-299.92-35.83l-4.6-.67c-81.89-11.81-165.37-22.19-246.1-32.23-13.49-1.68-26.98-3.36-40.47-5.04-112.02-14-226.49-21.14-337.18-28.04-16.29-1.02-33.13-2.07-49.69-3.12-111.19-7.09-230.57-10.38-375.72-10.38-13.59,0-27.77.03-42.15.08-8.07.03-16.7.05-26.39.05-11.36,0-22.9-.02-34.07-.04-11.17-.02-22.73-.04-34.09-.04-34.47,0-75.12.19-115.27,1.55-47.67,1.62-96.18,2.27-143.09,2.9-28.39.38-57.74.78-86.61,1.38-13.78.29-27.74,1.45-41.24,2.57-4.88.4-9.92.83-14.87,1.19-32.04,2.4-64.61,4.86-96.11,7.24-37.55,2.84-76.37,5.77-114.56,8.62-24.43,1.82-49.27,3.62-73.29,5.36-23.46,1.7-47.72,3.45-71.58,5.24-36.12,2.69-72.83,5.46-108.35,8.14-33.54,2.53-68.21,5.15-102.32,7.69-22.92,1.71-46.22,3.41-68.76,5.04-25.48,1.85-51.84,3.77-77.75,5.72-31.94,2.4-64.41,4.88-95.81,7.28-36.02,2.75-73.27,5.6-109.91,8.33-25.24,1.89-50.92,3.72-75.75,5.5-24.28,1.73-49.38,3.53-74.07,5.38-32.93,2.46-66.4,5.01-98.77,7.47-35.06,2.67-71.31,5.44-106.96,8.08-18.2,1.35-36.72,2.61-54.63,3.82-31.22,2.12-63.5,4.3-95.2,7.08-37.69,3.3-78.06,6.36-117.96,6.36-27.39,0-52.29-1.4-76.11-4.28-41.97-5.08-78.74-17.35-109.3-36.47-15.9-9.95-30.49-21.97-43.37-35.76-13.21-14.13-25.02-30.53-35.09-48.72-17.78-32.12-31.56-66.99-40.97-103.68-20.58-80.28-35.97-162.63-47.04-251.76-9.99-80.37-16.16-163.93-18.86-255.46-2.11-71.46.68-141.98,5.52-225.89,3.32-57.57,8.55-114.15,15.52-168.18,7.34-56.78,16.88-112.75,28.36-166.37,16.76-78.26,36.72-148.49,61.03-214.69,13.01-35.44,27.44-69.98,42.89-102.67,16.13-34.14,33.9-67.4,52.83-98.87,33.45-55.62,71.01-106.41,111.62-150.95,40.9-44.87,86.07-84.67,134.25-118.31,48.53-33.88,101.49-62.48,157.42-84.99,56.34-22.68,117.29-39.82,181.15-50.96,29.51-5.15,59.75-8.23,89-11.2,10.44-1.06,21.23-2.16,31.85-3.34h112.12M1006.54,1157.85c.08,57.75,4.59,110.48,13.78,161.2,8.59,47.42,21.38,93.5,39.1,140.87,6.31,16.87,8.68,23.18,19.72,23.18,3.85,0,8.77-.73,15.57-1.73l1.53-.23c81.67-12.01,168.73-24.58,266.15-38.45,128.65-18.31,234.56-33.21,333.28-46.88,7.81-1.08,12.68-3.36,15.32-7.17,2.71-3.91,3.1-9.22,1.28-17.23-12.61-55.67-28.6-121.33-51.59-186.18-18.98-53.56-37.24-96.58-57.48-135.41-24.43-46.88-51.41-86.78-82.48-121.96-64.94-73.53-138.26-109.28-224.15-109.28-2.75,0-5.55.03-8.33.11-29.42.78-57.39,5.17-83.13,13.05-25.69,7.87-49.47,19.3-70.7,33.99-43.21,29.91-75.84,72.86-96.97,127.67-10.79,27.98-18.99,57.76-24.37,88.51-4.7,26.85-6.97,53.11-6.55,75.92M1451.19.69h-112.45c-40.41,4.48-80.93,7.55-121.09,14.57-258.14,45.04-451.64,183.02-585.87,406.19-77.78,129.32-125.58,270.13-157,416.88-23.64,110.39-37.43,222.09-43.93,334.86-4.34,75.34-7.75,150.68-5.52,226.07,5.06,171.36,23.28,341.17,65.97,507.67,9.32,36.33,22.9,71.18,41.16,104.17,41.31,74.62,106.72,112,189.33,122,25.45,3.08,50.91,4.29,76.36,4.29,39.39,0,78.76-2.91,118.15-6.37,49.87-4.37,99.88-7.19,149.81-10.89,68.58-5.09,137.15-10.45,205.73-15.56,49.93-3.72,99.89-7.14,149.81-10.87,68.58-5.12,137.14-10.46,205.72-15.61,48.83-3.67,97.68-7.12,146.51-10.77,70.23-5.24,140.44-10.61,210.67-15.84,48.29-3.6,96.58-6.99,144.87-10.6,70.23-5.24,140.44-10.61,210.67-15.86,18.66-1.39,37.31-3.36,55.99-3.76,76.57-1.6,153.19-1.68,229.73-4.28,38.39-1.3,76.81-1.55,115.2-1.55,22.72,0,45.45.08,68.16.08,8.8,0,17.6-.01,26.4-.05,14.04-.06,28.1-.08,42.14-.08,125.25,0,250.55,2.41,375.59,10.38,129.07,8.23,258.3,15.11,386.74,31.15,95.58,11.94,191.21,23.53,286.53,37.28,101.29,14.6,202.62,29.33,304.68,36.51,31.64,2.23,63.33,4.05,94.93,4.05,52.33,0,104.42-4.99,155.69-21.45,49.94-16.03,93.14-41.49,125.8-83.05,5.36-6.81,10.86-14.66,12.75-22.85,8.48-36.75,20.43-72.61,24.76-110.5,2.12-18.58,3.77-37.41,6.83-56.03,3.56-21.63,5.53-44.16,3.63-65.91-2.58-29.6-8.12-58.83-19.27-87.15-25.62-65.07-69.73-115.19-123.74-157.33-72.44-56.53-154.56-94.41-241.22-123.9-163.1-55.49-331.31-84.29-502.11-102.61-74.46-7.99-149.02-14.62-223.62-19.62-90.04-6.02-180.33-8.47-270.63-9.82-29.88-.45-59.82-1.3-89.7-1.3-4.72,0-9.42.02-14.14.07-5.76.06-11.54.08-17.3.08-22.13,0-44.28-.34-66.42-.34-17.75,0-35.49.22-53.25,1.01-4.13.18-8.25.26-12.39.26-18.06,0-36.19-1.42-54.35-1.42-2.5,0-5.01.03-7.52.09-94.7,2.34-189.43,3.3-284.1,6.22-88.07,2.71-176.02,8.32-264.17,9.84-28.36.49-56.62,7.63-84.9,11.88-5.24.78-9.23,1.32-12.29,1.32-8.78,0-9.82-4.36-10.47-19.46-2.41-56.05-3.2-112.16-8.29-168.1-25.9-284.48-95.13-554.27-271.25-786.69-104.35-137.7-236.08-239.53-402.1-293.51-52.52-17.08-106.3-28.33-161.56-31.85-3.25-.21-6.44-1.26-9.66-1.91h0v-.03ZM1079.13,1481.02c-9.54,0-11.38-4.76-17.77-21.83-33.85-90.48-52.57-183.78-52.75-301.35-.78-42.59,7.91-104.33,30.78-163.67,42.35-109.85,131.25-170.26,248.91-173.38,2.77-.08,5.54-.11,8.28-.11,91.98,0,163.27,41.39,222.59,108.57,66.04,74.79,106.63,163.76,139.56,256.68,21.54,60.77,37.29,123.14,51.52,185.95,3.2,14.14-.69,19.92-14.86,21.88-111.13,15.39-222.22,31.08-333.29,46.88-88.75,12.63-177.48,25.41-266.17,38.45-7.53,1.11-12.83,1.94-16.81,1.94h0Z"/>
        </g>
      </g>
      <g>
        <path class="cls-16" d="M1063.77,4693.99c21.89,1.8,43.75,4.06,65.67,5.31,44.51,2.52,88.93,5.53,132.86,13.72,75.16,14.01,131.57,53.36,167.5,121.49,14.41,27.34,27.18,55.33,37.8,84.29,70.7,192.68,141.26,385.41,211.97,578.08,2.18,5.95,2.73,12.91,8.73,17.38,5.63-4.59,6.68-11.39,9.14-17.24,65.93-157.35,131.71-314.76,197.54-472.16,22.52-53.83,44.23-108.02,77.46-156.6,33.18-48.51,77.86-79.86,135.34-93.31,42.1-9.85,84.77-11.98,127.78-13.44,39.54-1.35,79.06-2.86,118.57-2.86,30.92,0,61.84.93,92.75,3.59,74.34,6.42,118.13,41.73,139.85,113.07,2.24,7.36,4.27,14.81,5.92,22.31,9.87,44.67,13.29,90.17,17.49,135.59,5.92,64.01,12.69,127.94,18.87,191.93,5.98,61.8,11.59,123.64,17.54,185.44,6.21,64.54,12.68,129.05,18.92,193.58,5.93,61.26,11.66,122.53,17.58,183.78,6.19,63.99,12.51,127.96,18.78,191.94,5.09,51.95,10.78,103.84,15.15,155.84,4.7,55.84,13.18,111.4,11.31,167.74-2.66,80.2-39.22,121.64-118.45,132.94-24.01,3.43-48.04,4.55-72.15,4.55-14.89,0-29.81-.43-44.78-1.01-57.78-2.24-115.4-4.89-172.66-13.55-100.53-15.2-141.43-55.58-156.88-155.64-5.97-38.64-7.86-77.58-10.22-116.55-4.69-77.36-10.61-154.64-15.74-231.96-3.75-56.5-6.92-113.03-10.59-169.53-5.23-80.63-10.61-161.25-16.06-241.86-2.21-32.64-4.79-65.27-7.5-102.01-3.35,8.84-5.29,13.84-7.14,18.87-103.42,279.72-206.83,559.45-310.22,839.18-7.84,21.2-16.61,41.97-28.13,61.46-17.97,30.42-44.19,47.11-79.67,52.27-11.26,1.64-22.45,2.25-33.6,2.25-22.93,0-45.7-2.56-68.55-3.96-63.81-3.91-104.78-38.23-125.65-97.8-2.37-6.75-5.18-13.34-7.51-20.11-79.3-231.05-158.57-462.11-237.85-693.16-15.11-44.04-30.27-88.07-45.41-132.1-7.82,78.69-13.39,156.98-18.39,235.3-4.94,77.36-9.12,154.76-13.99,232.12-6.35,100.94-12.73,201.88-19.78,302.77-2.1,30.12-5.3,60.24-13.42,89.57-16.95,61.24-55.08,91.6-117.81,98.21-13.21,1.39-26.34,1.98-39.43,1.98-28.14,0-56.07-2.73-84.01-6.04-56.82-6.74-113.52-14.52-168.45-31.64-56.16-17.51-96.33-50.09-106.65-111.32v-75.98c2.44-15.72,4.74-31.48,7.35-47.17,21.45-128.99,42.92-257.98,64.47-386.95,22.55-134.91,45.23-269.81,67.8-404.72,21.48-128.39,42.85-256.81,64.32-385.2,8.25-49.32,15.91-98.75,33.4-146.01,21.25-57.41,60.21-93.52,121.87-103.05,7.04-1.09,14.05-2.4,21.07-3.61h105.82M1063.8,4693.29h-105.97c-2.22.39-4.43.78-6.65,1.17-4.72.83-9.6,1.69-14.41,2.44-30.26,4.68-55.98,16.02-76.44,33.73-19.68,17.02-35.15,40.5-45.98,69.77-16.54,44.68-24.43,92.07-32.06,137.89-.46,2.75-.92,5.49-1.37,8.24-10.65,63.7-21.46,128.48-31.91,191.11-10.61,63.61-21.59,129.39-32.41,194.09-10.54,63.02-21.28,127.09-31.67,189.05-11.85,70.69-24.11,143.78-36.13,215.68-21.97,131.48-43.9,263.25-64.47,386.95-1.78,10.73-3.45,21.66-5.06,32.23-.76,4.98-1.52,9.97-2.3,14.95v.11s0,76.1,0,76.1c2.54,14.99,6.97,28.77,13.19,40.97,5.96,11.67,13.74,22.26,23.15,31.47,17.48,17.13,40.63,30.03,70.79,39.43,55.76,17.38,113.86,25.18,168.58,31.67,26.46,3.14,54.96,6.04,84.09,6.04,13.91,0,26.83-.65,39.5-1.98,64-6.75,101.63-38.12,118.41-98.72,8.45-30.53,11.54-62.48,13.44-89.7,6.81-97.41,12.99-194.76,19.78-302.78,2.31-36.69,4.49-73.99,6.62-110.08,2.35-40,4.78-81.37,7.37-122.04,4.39-68.8,9.97-150.04,18.07-232.12,4.47,13,8.94,25.99,13.41,38.99,10.15,29.53,20.66,60.06,30.96,90.11,24.08,70.16,48.15,140.32,72.22,210.48,54.28,158.21,110.41,321.8,165.64,482.68,1.22,3.55,2.59,7.1,3.92,10.54,1.21,3.13,2.46,6.36,3.58,9.57,10.58,30.19,26.37,53.77,46.95,70.09,21.15,16.77,47.83,26.25,79.31,28.18,7.12.44,14.37.99,21.37,1.53,15.45,1.19,31.42,2.43,47.22,2.43,12.27,0,23.29-.73,33.7-2.25,36.13-5.26,62.35-22.47,80.16-52.61,10.03-16.97,18.72-35.97,28.19-61.57,101.15-273.69,200.35-541.98,310.22-839.18,1.2-3.24,2.46-6.54,4.05-10.72.6-1.58,1.26-3.3,1.98-5.22.79,10.7,1.57,21.09,2.33,31.16,1.77,23.44,3.43,45.57,4.93,67.73,6.11,90.37,11.37,169.48,16.06,241.86,1.69,26.03,3.3,52.51,4.86,78.12,1.82,29.97,3.71,60.95,5.73,91.42,2,30.2,4.16,60.9,6.26,90.59,3.26,46.33,6.63,94.23,9.49,141.37.24,3.99.48,7.98.71,11.97,2.04,34.38,4.15,69.93,9.52,104.65,3.97,25.7,9.51,46.81,16.94,64.56,7.68,18.34,17.42,33.22,29.79,45.47,12.35,12.25,27.34,21.89,45.82,29.49,17.84,7.33,39.07,12.8,64.91,16.7,56.35,8.52,113.87,11.28,172.74,13.56,18,.7,31.82,1.01,44.8,1.01,27.5,0,50.46-1.45,72.25-4.56,40.1-5.72,69-19.08,88.36-40.86,19.3-21.71,29.33-52.05,30.68-92.75,1.37-41.29-2.89-82.81-7-122.98-1.51-14.69-3.06-29.88-4.31-44.84-3.02-35.87-6.71-72.29-10.29-107.5-1.61-15.84-3.27-32.23-4.86-48.35-1.62-16.52-3.25-33.04-4.87-49.56-4.58-46.66-9.32-94.91-13.91-142.38-2.95-30.44-5.89-61.39-8.74-91.33-2.89-30.3-5.86-61.63-8.84-92.44-2.88-29.7-5.85-59.9-8.72-89.1-3.37-34.24-6.85-69.65-10.2-104.48-2.83-29.4-5.63-59.29-8.33-88.2-2.98-31.87-6.07-64.84-9.2-97.25-2.5-25.87-5.15-52.17-7.7-77.61-3.76-37.46-7.65-76.2-11.17-114.32-.45-4.88-.89-9.75-1.33-14.63-3.61-39.88-7.35-81.13-16.17-121.06-1.55-7.03-3.5-14.34-5.94-22.36-11-36.13-27.49-62.69-50.42-81.22-22.9-18.51-52.36-29.09-90.03-32.34-28.07-2.42-58.43-3.6-92.82-3.6s-71.54,1.24-106.41,2.44c-4.06.14-8.12.28-12.18.42-43.39,1.48-85.81,3.61-127.92,13.46-28.54,6.68-54.46,17.99-77.02,33.61-22.32,15.45-42.08,35.64-58.74,59.98-31.14,45.52-52.52,96.78-73.21,146.37-1.44,3.45-2.88,6.9-4.32,10.36l-54.13,129.41c-46.98,112.34-95.56,228.52-143.42,342.75-.61,1.46-1.14,2.99-1.65,4.47-1.51,4.36-3.07,8.85-6.86,12.15-4.04-3.25-5.38-7.86-6.67-12.31-.42-1.46-.87-2.98-1.39-4.42-35.58-96.98-71.73-195.6-106.69-290.96-34.5-94.11-70.16-191.42-105.28-287.12-10.24-27.91-22.62-55.51-37.84-84.38-17.76-33.69-41.06-61.03-69.24-81.27-27.65-19.86-60.87-33.51-98.74-40.56-44.09-8.21-88.04-11.18-132.95-13.73-15.07-.85-30.37-2.21-45.17-3.53-6.71-.6-13.65-1.21-20.48-1.78h-.04Z"/>
        <path class="cls-14" d="M3496.63,4715.13c22.3,0,44.63.4,66.98,1.21,141.48,5.17,280.82,23.68,412.83,78.9,69.99,29.28,134.52,67.41,180.49,129.42,74.44,100.43,71.31,206.85,16.86,314.14-37.71,74.3-98.44,129.11-162.95,179.75-25.34,19.89-51.64,38.55-79.94,59.57,37.46,6.24,72.35,9.94,106.6,17.45,87.64,19.2,170.5,49.15,240,108.1,69.92,59.3,106.44,135.74,114.31,226.62,12.9,148.88-51.35,263.14-161.09,356.16-99.08,83.99-215.29,136.37-337.45,176.72-114.27,37.74-231.62,61.29-350.9,76.89-89.63,11.72-179.49,16.31-269.52,16.31-26.06,0-52.14-.38-78.22-1.1-42.77-1.16-85.69-3.86-128.08-11.59-81.34-14.84-108.65-58.15-115.03-133.01-7.84-91.98-11.76-184.29-17.34-276.46-6.67-110.28-13.3-220.57-19.97-330.85-4.35-71.88-8.6-143.75-13.13-215.61-6.19-98.19-13.73-196.3-18.58-294.55-3.82-77.41-12.22-154.62-11.1-232.28.23-16.06,2.43-31.8,5.04-47.51,10.29-61.78,45.86-103.15,103.15-127.17,51.79-21.71,106.67-30.82,161.47-40,117.83-19.74,236.37-31.13,355.59-31.13M3496.63,4714.44c-57.94,0-117.95,2.75-178.37,8.16-57.39,5.15-117.05,12.87-177.33,22.97l-1.1.19c-53.59,8.98-109.01,18.26-160.52,39.86-29,12.16-52.37,28.86-69.46,49.62-17.55,21.32-29.02,47.58-34.1,78.07-2.48,14.89-4.81,30.96-5.05,47.61-.76,52.47,2.89,105.59,6.42,156.97,1.69,24.69,3.45,50.23,4.69,75.36,3.23,65.49,7.73,132.02,12.09,196.37,2.18,32.19,4.43,65.46,6.49,98.2,3.39,53.72,6.67,108.36,9.86,161.2,1.09,18.14,2.18,36.27,3.28,54.41,3.07,50.72,6.12,101.45,9.18,152.17,3.59,59.56,7.18,119.12,10.79,178.68,1.66,27.39,3.2,55.26,4.68,82.2,3.52,63.73,7.15,129.62,12.67,194.27,3.43,40.26,12.83,68.66,29.56,89.39,9.14,11.33,20.41,20.37,34.45,27.66,14.34,7.44,31.21,12.87,51.59,16.58,46.38,8.46,92.87,10.64,128.19,11.6,26.73.72,53.05,1.1,78.24,1.1,97.46,0,185.66-5.34,269.61-16.32,131.62-17.22,246.44-42.37,351.03-76.92,67.76-22.38,125.81-45.94,177.48-72.04,60.85-30.73,113.26-65.02,160.21-104.82,28.05-23.78,52.73-48.69,73.37-74.05,21.67-26.63,39.61-54.66,53.34-83.31,14.32-29.91,24.53-61.48,30.32-93.82,6.01-33.6,7.46-69.11,4.3-105.56-3.98-45.93-15.41-88.13-33.96-125.41-19.05-38.28-46.16-72.49-80.6-101.69-32.94-27.93-70.02-50.53-113.38-69.06-36.71-15.7-78.24-28.52-126.92-39.18-22.07-4.83-44.14-8.06-67.51-11.47-12.17-1.78-24.74-3.61-37.52-5.72,8.57-6.35,17-12.53,25.17-18.52,18.62-13.64,36.2-26.53,53.47-40.09,61.98-48.66,124.66-104.14,163.14-179.98,13.83-27.25,24.22-54.29,30.86-80.37,6.89-27.05,9.96-53.83,9.12-79.61-.87-26.68-5.95-53.04-15.11-78.35-9.45-26.13-23.51-51.88-41.79-76.54-21.72-29.31-48.35-54.55-81.4-77.15-27.7-18.94-60.21-36.12-99.37-52.5-62.44-26.12-128.85-45.18-203-58.26-62.61-11.04-131.32-17.81-210.06-20.69-22.07-.8-44.62-1.21-67.01-1.21h-.01Z"/>
        <path class="cls-15" d="M1282.01,2166.47c4.32.67,8.64,1.87,12.96,1.94,82.34,1.33,163.54,12.28,243.75,30.15,253.54,56.49,467.61,180.22,635.25,379.49,193.51,230.01,284.47,499.7,299.34,796.91,5.21,104.12-1.96,207.88-22.38,310.46-55.63,279.44-193.21,509.85-416.04,687.67-225.98,180.32-487.2,267.74-773.82,282.83-21.8,1.14-43.54,1.72-65.25,1.72-104.97,0-208.86-13.46-311.17-40.78C380.86,4482.33,16.6,4041.19,1.21,3492.21c-2.38-84.85,3.78-169.31,15.59-253.43,23.42-166.9,71.9-325.84,155.61-472.41,209.54-366.91,530.58-557.74,947.96-594.98,24.13-2.15,48.44-.46,72.35-4.92h89.31M1282.06,2165.77h-89.49c-14.66,2.75-29.76,3.18-44.37,3.58-9.15.26-18.62.52-27.91,1.35-52.11,4.65-103.26,11.79-152.04,21.22-49.08,9.49-97.13,21.57-142.84,35.89-45.98,14.41-90.88,31.51-133.46,50.82-42.83,19.43-84.51,41.64-123.89,66.03-39.61,24.53-78.01,51.95-114.14,81.49-36.33,29.72-71.4,62.42-104.21,97.21-33,34.99-64.66,73.08-94.11,113.2-29.6,40.35-57.81,83.9-83.81,129.45-40.57,71.04-74.37,148-100.47,228.71-24.62,76.15-43.19,158.22-55.22,243.94-12.74,90.74-17.83,173.68-15.59,253.55,3.77,134.58,28.59,265.33,73.73,388.62,43.78,119.55,106.02,230.42,185,329.53,78.2,98.13,171.27,182.84,276.62,251.77,106.72,69.82,224.01,122.1,348.61,155.37,50.8,13.57,102.84,23.88,154.68,30.65,51.55,6.74,104.26,10.15,156.67,10.15,21.59,0,43.56-.58,65.29-1.73,72.19-3.8,142.89-12.28,210.14-25.21,68.8-13.23,135.99-31.48,199.71-54.28,65.11-23.29,128.47-51.98,188.33-85.28,61.1-33.99,120.33-73.76,176.03-118.2,55.37-44.18,106.26-92.37,151.28-143.25,44.83-50.66,85.07-105.39,119.61-162.66,34.4-57.04,64.08-118.18,88.23-181.72,24.06-63.3,43.3-130.74,57.17-200.44,10.11-50.78,17.11-102.84,20.82-154.74,3.66-51.27,4.19-103.73,1.57-155.9-3.75-75.03-12.45-148.26-25.85-217.65-13.77-71.31-32.9-140.69-56.88-206.21-24.6-67.21-55.01-132.35-90.4-193.6-36.24-62.74-78.76-123.25-126.38-179.86-41.52-49.35-86.74-94.95-134.41-135.5-47.16-40.13-98.03-76.45-151.18-107.94-52.59-31.16-108.88-58.46-167.29-81.15-57.79-22.45-119.28-40.99-182.74-55.13-41.1-9.16-81.86-16.32-121.14-21.29-41.47-5.24-82.76-8.23-122.75-8.88-2.89-.05-5.86-.62-8.73-1.18-1.35-.26-2.75-.53-4.14-.75h-.06v.02Z"/>
        <path class="cls-2" d="M3914.9,2166.47c4.32.67,8.64,1.88,12.97,1.94,77.34,1.09,153.66,11.2,229.2,26.96,196.92,41.08,374.06,123.87,525.67,256.8,231.08,202.61,358.27,461.55,407.55,761.73,7.39,45.05,10.79,90.54,15.37,135.9v168.58c-5.23,55.8-10.8,111.53-21.74,166.62-55.5,279.41-192.97,509.82-415.65,687.7-225.82,180.4-486.96,267.93-773.5,283.18-22.11,1.18-44.17,1.77-66.19,1.77-105.19,0-209.29-13.48-311.78-40.97-509.94-136.75-872.39-585.25-882.84-1134.83-1.55-81.55,4.45-162.65,15.79-243.46,23.8-169.69,73.6-331.05,159.69-479.49,210.22-362.46,529.94-550.71,943.84-587.53,24.12-2.14,48.43-.45,72.33-4.92h89.31M3914.96,2165.77h-89.49c-14.68,2.75-29.79,3.18-44.41,3.59-9.14.26-18.58.52-27.86,1.34-51.68,4.6-102.42,11.65-150.83,20.96-48.71,9.37-96.43,21.29-141.83,35.43-45.68,14.23-90.31,31.11-132.65,50.17-42.6,19.18-84.07,41.11-123.28,65.18-39.44,24.22-77.71,51.29-113.73,80.46-36.24,29.34-71.22,61.64-103.99,96-32.96,34.56-64.61,72.17-94.08,111.8-29.63,39.86-57.89,82.88-83.98,127.87-21.16,36.49-40.66,74.75-57.95,113.74-16.84,37.97-32.09,77.72-45.3,118.16-25.28,77.34-44.3,160.73-56.52,247.83-12.1,86.28-17.27,165.96-15.79,243.57,2.57,134.85,26.34,266.12,70.68,390.16,43.07,120.5,104.84,232.37,183.57,332.48,78.15,99.37,171.45,185.18,277.29,255.03,107.48,70.94,225.85,124.03,351.81,157.81,50.86,13.64,102.99,24,154.97,30.81,51.61,6.76,104.43,10.18,156.99,10.18,21.9,0,44.18-.6,66.23-1.77,72.17-3.84,142.85-12.36,210.09-25.32,68.78-13.26,135.94-31.55,199.63-54.38,65.08-23.32,128.42-52.04,188.25-85.36,61.08-34.02,120.26-73.81,175.93-118.27,55.33-44.2,106.19-92.41,151.17-143.29,44.8-50.68,85.01-105.41,119.51-162.67,34.36-57.05,64.02-118.18,88.14-181.72,24.03-63.3,43.24-130.73,57.07-200.42,10.72-53.98,16.2-107.43,21.75-166.69v-168.72c-1.05-10.34-2.05-20.84-3.01-31.01-3.27-34.47-6.66-70.12-12.37-104.93-12.43-75.74-29.92-148.84-52-217.27-22.65-70.24-50.8-137.66-83.67-200.4-33.68-64.28-73.3-125.54-117.78-182.1-45.5-57.86-97.42-112.49-154.32-162.38-37.46-32.84-77.32-63.29-118.48-90.49-40.51-26.77-83.41-51.15-127.52-72.47-43.39-20.96-89.15-39.54-136.02-55.23-46.08-15.42-94.52-28.47-143.97-38.78-82.16-17.13-157.17-25.96-229.33-26.98-2.89-.04-5.86-.62-8.73-1.18-1.35-.26-2.75-.53-4.14-.76h-.06Z"/>
        <path class="cls-4" d="M1451.19.69c3.22.65,6.42,1.7,9.66,1.91,55.26,3.52,109.05,14.77,161.56,31.85,166.02,53.99,297.76,155.81,402.1,293.51,176.12,232.41,245.34,502.21,271.25,786.69,5.09,55.94,5.88,112.05,8.29,168.1.65,15.1,1.69,19.46,10.47,19.46,3.06,0,7.05-.53,12.29-1.32,28.29-4.25,56.55-11.39,84.9-11.88,88.15-1.51,176.1-7.12,264.17-9.84,94.68-2.92,189.41-3.88,284.1-6.22,2.5-.06,5.01-.09,7.52-.09,18.15,0,36.29,1.42,54.35,1.42,4.13,0,8.27-.08,12.39-.26,17.76-.79,35.5-1.01,53.25-1.01,22.14,0,44.28.34,66.42.34,5.76,0,11.54-.02,17.3-.08,4.71-.05,9.42-.07,14.14-.07,29.88,0,59.81.86,89.7,1.3,90.31,1.35,180.6,3.8,270.63,9.82,74.61,4.99,149.16,11.63,223.62,19.62,170.8,18.33,339.01,47.12,502.11,102.61,86.66,29.49,168.78,67.37,241.22,123.9,54.01,42.15,98.12,92.26,123.74,157.33,11.15,28.32,16.69,57.56,19.27,87.15,1.9,21.75-.07,44.28-3.63,65.91-3.07,18.62-4.71,37.45-6.83,56.03-4.33,37.89-16.29,73.75-24.76,110.5-1.89,8.19-7.39,16.04-12.75,22.85-32.66,41.56-75.86,67.02-125.8,83.05-51.27,16.45-103.36,21.45-155.69,21.45-31.6,0-63.3-1.82-94.93-4.05-102.06-7.17-203.38-21.9-304.68-36.51-95.32-13.74-190.96-25.33-286.53-37.28-128.44-16.05-257.68-22.93-386.74-31.15-125.04-7.97-250.35-10.38-375.59-10.38-14.05,0-28.1.03-42.14.08-8.8.03-17.59.05-26.4.05-22.71,0-45.43-.08-68.16-.08-38.39,0-76.81.24-115.2,1.55-76.54,2.6-153.16,2.68-229.73,4.28-18.68.39-37.34,2.36-55.99,3.76-70.23,5.26-140.44,10.63-210.67,15.86-48.29,3.6-96.58,7-144.87,10.6-70.23,5.23-140.44,10.6-210.67,15.84-48.83,3.64-97.68,7.1-146.51,10.77-68.57,5.15-137.14,10.49-205.72,15.61-49.93,3.73-99.89,7.14-149.81,10.87-68.58,5.11-137.15,10.47-205.73,15.56-49.93,3.71-99.93,6.52-149.81,10.89-39.38,3.45-78.76,6.37-118.15,6.37-25.45,0-50.91-1.22-76.36-4.29-82.61-10-148.02-47.38-189.33-122-18.26-32.99-31.85-67.84-41.16-104.17-42.69-166.5-60.91-336.32-65.97-507.68-2.23-75.39,1.17-150.72,5.52-226.07,6.51-112.77,20.3-224.46,43.93-334.86,31.42-146.74,79.22-287.56,157-416.88C766.01,198.25,959.5,60.27,1217.65,15.23c40.16-7.01,80.69-10.08,121.09-14.57h112.45M1451.26,0h-112.59c-10.64,1.19-21.47,2.28-31.94,3.35-29.29,2.98-59.58,6.06-89.2,11.22-64.06,11.17-125.19,28.38-181.71,51.12-56.12,22.59-109.27,51.28-157.97,85.28-48.35,33.76-93.67,73.7-134.71,118.71-40.74,44.68-78.4,95.61-111.95,151.39-18.97,31.55-36.79,64.89-52.96,99.12-15.48,32.77-29.94,67.39-42.98,102.9-24.36,66.33-44.36,136.68-61.15,215.07-11.49,53.69-21.05,109.74-28.4,166.59-6.99,54.08-12.22,110.73-15.54,168.37-4.84,83.97-7.64,154.57-5.52,226.13,2.71,91.62,8.88,175.27,18.88,255.73,10.94,88.01,26.79,172.83,47.11,252.11,9.46,36.91,23.33,72.01,41.23,104.33,10.18,18.4,22.13,34.97,35.49,49.28,13.05,13.96,27.82,26.14,43.92,36.21,30.9,19.34,68.06,31.74,110.44,36.87,23.93,2.89,48.93,4.3,76.44,4.3,40.01,0,80.46-3.06,118.2-6.37,31.68-2.77,63.95-4.96,95.15-7.08,17.91-1.21,36.44-2.47,54.65-3.82,35.66-2.65,71.91-5.41,106.97-8.08,32.37-2.47,65.84-5.02,98.76-7.47,24.68-1.84,49.78-3.63,74.05-5.37,24.83-1.78,50.51-3.61,75.75-5.5,36.64-2.73,73.89-5.58,109.92-8.33,31.4-2.4,63.87-4.88,95.81-7.28,25.91-1.94,52.26-3.86,77.74-5.72,22.54-1.64,45.85-3.34,68.77-5.04,34.11-2.55,68.79-5.16,102.32-7.69,35.51-2.68,72.23-5.45,108.34-8.14,23.85-1.78,48.11-3.53,71.57-5.23,24.03-1.74,48.87-3.54,73.3-5.36,38.19-2.85,77.02-5.79,114.56-8.62,31.5-2.38,64.07-4.84,96.11-7.24,4.97-.37,10.01-.79,14.89-1.19,13.46-1.12,27.37-2.28,41.06-2.56,28.86-.6,58.2-1,86.59-1.38,46.93-.63,95.45-1.28,143.15-2.9,40.11-1.37,80.73-1.55,115.18-1.55,11.36,0,22.92.02,34.09.04s22.72.04,34.07.04c9.69,0,18.33-.01,26.4-.05,14.37-.06,28.55-.08,42.14-.08,145.09,0,264.43,3.3,375.55,10.38,16.56,1.05,33.41,2.11,49.69,3.12,110.65,6.9,225.07,14.04,337.01,28.03,13.49,1.69,26.98,3.36,40.48,5.04,80.72,10.04,164.19,20.43,246.04,32.23l4.6.67c98.12,14.15,199.58,28.78,300.12,35.85,28.48,2,62.04,4.05,94.98,4.05,60.69,0,110.23-6.83,155.9-21.48,54.6-17.52,95.86-44.76,126.13-83.28,5.28-6.72,10.94-14.73,12.88-23.12,2.65-11.49,5.69-23.09,8.64-34.31,6.47-24.67,13.16-50.19,16.14-76.27.55-4.83,1.08-9.77,1.6-14.54,1.46-13.62,2.97-27.69,5.23-41.45,4.13-25.12,5.32-46.73,3.63-66.08-2.89-33.1-9.2-61.67-19.31-87.34-12.39-31.46-29.18-60.07-51.33-87.45-19.95-24.65-43.71-47.61-72.63-70.18-34.67-27.05-72.42-50.66-115.4-72.16-37.68-18.85-78.9-35.81-126.03-51.84-77.46-26.36-158.67-47.7-248.26-65.27-76.77-15.05-159.86-27.27-254-37.37-76.47-8.21-151.72-14.81-223.65-19.62-98.5-6.59-196.4-8.71-270.68-9.82-9.65-.15-19.47-.33-28.97-.52-19.91-.39-40.51-.78-60.74-.78-4.85,0-9.61.02-14.14.07-5.45.06-11.1.08-17.29.08-11.06,0-22.32-.09-33.2-.17-10.88-.08-22.14-.17-33.22-.17-20.86,0-37.79.32-53.28,1.01-3.89.17-7.94.26-12.36.26-9,0-18.19-.36-27.07-.71-8.93-.35-18.17-.71-27.27-.71-2.64,0-5.1.03-7.53.09-39.05.96-78.75,1.71-117.15,2.43-54.73,1.03-111.32,2.08-166.96,3.79-36.46,1.12-73.51,2.77-109.35,4.36-50.72,2.25-103.17,4.59-154.82,5.47-19.82.34-39.9,3.97-59.31,7.5-8.42,1.53-17.13,3.1-25.69,4.39-5.51.83-9.28,1.3-12.19,1.3-8.14,0-9.12-3.56-9.77-18.8-.66-15.35-1.21-30.96-1.73-46.06-1.4-40.04-2.86-81.43-6.55-122.07-14.25-156.52-40.2-291.61-79.33-413.02-21.87-67.86-48.44-132.78-78.96-192.95-32.38-63.84-70.43-124.76-113.11-181.07-26.3-34.7-54.41-67.15-83.56-96.43-29.84-29.98-61.63-57.52-94.5-81.86-33.6-24.88-69.29-47.14-106.08-66.15-37.57-19.42-77.37-36.01-118.29-49.32-26.8-8.72-53.66-15.79-79.83-21.03-27.41-5.49-54.96-9.14-81.9-10.86-2.16-.14-4.35-.67-6.48-1.19-1.01-.24-2.05-.5-3.09-.71h-.07s0-.06,0-.06Z"/>
        <path class="cls-7" d="M3489.62,5061.65c1.15,0,2.3,0,3.45.01.81,0,1.63,0,2.45,0,38.62,0,76.28,5.61,112.48,19.51,108.17,41.55,133.62,156.46,52.5,239.39-49.05,50.14-111.49,75.73-178.21,92.04-32.62,7.98-65.76,13.13-99.52,14.05-.36,0-.71.01-1.07.01-12.15,0-17.06-5.94-18.03-17.22-4.59-53.65-9.02-107.31-13.74-160.95-3.85-43.78-7.46-87.6-12.37-131.27-1.61-14.32,1.82-22.59,15.52-28.2,43.87-17.99,89.26-27.37,136.54-27.37M3489.62,5060.96c-23.4,0-46.85,2.34-69.69,6.96-22.49,4.54-45.07,11.43-67.12,20.46-6.98,2.86-11.38,6.41-13.85,11.16-2.3,4.42-2.96,10.06-2.09,17.76,4.15,36.86,7.42,74.45,10.58,110.8.6,6.82,1.19,13.64,1.79,20.46,3.05,34.61,6.01,69.81,8.89,103.85,1.58,18.71,3.22,38.07,4.84,57.11,1.05,12.35,6.83,17.86,18.71,17.86.35,0,.72,0,1.08-.01,31.89-.87,64.5-5.47,99.67-14.07,37.12-9.07,68.47-20,95.87-33.39,32.37-15.82,59.41-35.07,82.67-58.84,19.79-20.23,33.7-42.67,41.36-66.71,7.23-22.72,8.48-46.55,3.6-68.92-4.89-22.43-16-43.64-32.12-61.35-17.04-18.71-39.1-33.36-65.59-43.54-34.27-13.17-71.13-19.56-112.72-19.56-.82,0-1.64,0-2.46,0-1.14-.01-2.29-.01-3.44-.01h0v-.02Z"/>
        <path class="cls-17" d="M3632.83,5738.32c37.3,0,75.7,4.45,113.13,17.22,100.42,34.26,102.21,134.34,58.03,192.13-32.3,42.26-76.69,67.09-124.86,85.84-62.47,24.31-127.62,36.89-194.53,40.46-3.29.17-6.67-.04-9.88.58-8.28,1.6-14.13,2.9-18.37,2.9-9.38,0-10.93-6.38-13.52-30.18-8.82-81.29-17.01-162.65-25.98-243.92-2.96-26.79-2.34-29.27,23.79-38.13,54.51-18.48,110.6-26.86,169.85-26.86,3.66,0,7.32.03,10.99.1,3.77-.09,7.57-.13,11.37-.13M3632.83,5737.63v.69-.69c-3.73,0-7.56.04-11.38.13-3.64-.06-7.35-.1-10.98-.1-61.06,0-116.69,8.8-170.07,26.9-13.8,4.68-20.07,7.47-23.17,12.64-3.2,5.33-2.53,13.04-1.08,26.22,4.97,45.01,9.78,90.81,14.43,135.09,3.75,35.67,7.62,72.56,11.56,108.83,2.48,22.88,3.87,30.8,14.21,30.8,3.63,0,8.27-.91,14.68-2.17,1.21-.24,2.48-.49,3.82-.74,2.12-.41,4.38-.44,6.58-.48,1.05-.01,2.14-.03,3.21-.09,34.13-1.82,67.46-6.01,99.03-12.46,33.04-6.75,65.24-16.18,95.72-28.04,27.02-10.52,49.44-21.69,68.51-34.17,22.85-14.94,41.38-31.91,56.65-51.9,12.18-15.94,20.82-34.92,24.97-54.91,4.31-20.75,3.55-41.74-2.2-60.68-5.22-17.2-14.35-32.42-27.14-45.25-14-14.04-32.16-24.93-53.99-32.38-34.02-11.61-71.11-17.25-113.35-17.25h0v.02Z"/>
        <path class="cls-5" d="M3879.14,2946.94c66.72,0,131.93,12.57,194.69,42.13,118.56,55.84,194.53,150.41,240.44,270.92,33.94,89.09,42.09,181.36,34.25,275.93-6.75,81.31-23.06,160.09-56.89,234.49-59.41,130.7-153.36,222.87-295.38,260.32-38.01,10.02-76.71,13.32-132.85,13.32-2.54,0-5.1,0-7.71-.02h-2c-74.35,0-163.24-19.01-244.75-65.75-120.09-68.85-193.14-174.24-225.88-306.44-42.37-171.12-26.91-337.34,63.1-491.28,76.47-130.79,194.12-204,343.5-226.62,30.08-4.55,59.94-7.02,89.5-7.02M3879.14,2946.25c-28.65,0-58.79,2.37-89.61,7.03-37.47,5.67-73.16,14.62-106.07,26.59-33.36,12.13-64.75,27.7-93.3,46.25-28.95,18.82-55.73,41.22-79.61,66.58-24.22,25.72-46.1,55.17-65.02,87.53-22.18,37.94-40.3,77.56-53.85,117.77-13.26,39.34-22.49,80.29-27.43,121.69-4.84,40.52-5.71,82.54-2.59,124.91,3.06,41.45,10.02,84.33,20.69,127.42,16.61,67.07,43.62,126.69,80.29,177.21,18.79,25.89,40.47,49.86,64.45,71.24,24.39,21.76,51.8,41.41,81.47,58.43,38.77,22.23,80.91,39.21,125.24,50.48,40.14,10.2,80.47,15.37,119.86,15.37h2c2.6.01,5.17.02,7.71.02,59.31,0,96.61-3.74,133.03-13.35,34.95-9.21,67.87-22.05,97.87-38.15,29.22-15.68,56.5-34.93,81.09-57.19,23.9-21.64,45.96-46.77,65.57-74.7,19.01-27.07,36.27-57.58,51.31-90.66,30.84-67.85,49.47-144.63,56.95-234.72,8.54-102.91-2.68-193.26-34.29-276.24-11.64-30.54-25.2-59.29-40.31-85.42-15.63-27.02-33.39-52.09-52.79-74.5-20-23.11-42.36-44.1-66.44-62.37-24.77-18.8-52.11-35.29-81.25-49.02-30.55-14.39-62.85-25.22-96.01-32.21-31.51-6.63-64.81-10-98.97-10h.01Z"/>
        <path class="cls-13" d="M1247.24,2946.96c66.83,0,132.13,12.61,194.99,42.26,117.96,55.64,193.7,149.72,239.7,269.53,35.22,91.74,42.98,186.8,34.14,284.1-9.07,99.92-32.97,195.24-84.44,282.14-68.9,116.32-168.72,189.6-303.08,213.49-28.31,5.04-56.97,5.18-85.56,5.67h-1.35c-93.78,0-183.05-19.03-264.88-66.01-120.06-68.93-192.99-174.4-225.7-306.59-42.04-169.93-26.87-335.18,61.66-488.42,76.43-132.29,194.65-206.46,345.36-229.2,29.96-4.52,59.72-6.97,89.16-6.97M1247.26,2946.26v.69-.69c-28.56,0-58.59,2.35-89.27,6.98-37.79,5.7-73.77,14.73-106.93,26.84-33.59,12.26-65.18,28-93.89,46.79-29.09,19.04-55.99,41.7-79.94,67.37-24.29,26.02-46.19,55.82-65.11,88.55-21.82,37.78-39.64,77.21-52.95,117.2-13.03,39.15-22.09,79.87-26.93,121.02-4.74,40.29-5.55,82.05-2.42,124.14,3.07,41.2,9.98,83.78,20.57,126.57,8.22,33.22,19.05,64.88,32.22,94.09,13.39,29.72,29.54,57.7,47.99,83.15,18.78,25.91,40.44,49.89,64.39,71.29,24.37,21.78,51.77,41.45,81.43,58.48,39.59,22.73,82.7,39.79,128.14,50.71,42.57,10.22,88.69,15.41,137.09,15.41h1.35c1.89-.03,3.77-.06,5.65-.1,26.32-.43,53.53-.88,80.03-5.59,33.3-5.92,65.1-15.05,94.49-27.12,29.08-11.94,56.64-27.11,81.87-45.08,24.97-17.77,48.38-38.78,69.58-62.44,20.97-23.4,40.35-50.04,57.61-79.18,24.88-42,43.91-86.6,58.19-136.35,12.87-44.85,21.49-92.64,26.34-146.08,9.66-106.32-1.53-199.35-34.18-284.41-11.66-30.37-25.23-58.95-40.32-84.93-15.61-26.88-33.33-51.81-52.67-74.1-19.95-22.99-42.22-43.87-66.19-62.06-24.67-18.71-51.88-35.14-80.87-48.81-30.6-14.43-62.95-25.3-96.15-32.3-31.56-6.65-64.91-10.03-99.12-10.03h0Z"/>
        <path class="cls-11" d="M1296.58,820.67c91.98,0,163.27,41.39,222.59,108.58,66.04,74.79,106.63,163.76,139.56,256.68,21.54,60.77,37.29,123.14,51.52,185.95,3.2,14.14-.69,19.92-14.86,21.88-111.13,15.39-222.22,31.08-333.29,46.88-88.75,12.63-177.48,25.41-266.17,38.45-7.53,1.11-12.83,1.94-16.81,1.94-9.54,0-11.38-4.76-17.77-21.83-33.85-90.48-52.57-183.78-52.75-301.35-.78-42.59,7.91-104.33,30.78-163.67,42.35-109.85,131.25-170.26,248.91-173.38,2.77-.08,5.54-.11,8.27-.11M1296.6,819.98v.69-.69c-2.75,0-5.54.03-8.3.11-29.3.78-57.14,5.15-82.76,12.99-25.55,7.82-49.21,19.19-70.32,33.8-42.98,29.74-75.43,72.49-96.46,127.03-10.75,27.9-18.93,57.59-24.3,88.25-4.69,26.78-6.95,52.95-6.53,75.68.08,57.66,4.58,110.3,13.75,160.95,8.57,47.34,21.34,93.34,39.04,140.64,6.4,17.12,8.34,22.28,18.42,22.28,3.75,0,8.63-.72,15.38-1.71l1.53-.23c81.71-12.01,168.77-24.59,266.16-38.45,128.6-18.3,234.5-33.2,333.29-46.88,7.4-1.03,11.97-3.12,14.37-6.59,2.46-3.56,2.8-8.54,1.08-16.13-12.6-55.63-28.58-121.24-51.54-186.03-18.96-53.49-37.2-96.47-57.4-135.23-24.38-46.78-51.3-86.58-82.29-121.68-64.66-73.21-137.63-108.81-223.1-108.81h-.01Z"/>
      </g>
    </g>
  </g>
</svg>